/* XPM */
static char * workspacebuttonactive_xpm[] = {
"1 30 29 1",
" 	c #9A5631",
".	c #9A5731",
"+	c #9C5832",
"@	c #9E5932",
"#	c #A05A32",
"$	c #A15A33",
"%	c #A35C34",
"&	c #A35D35",
"*	c #A35E36",
"=	c #A55F36",
"-	c #A75E36",
";	c #A95F36",
">	c #AA6036",
",	c #AB6037",
"'	c #AD6137",
")	c #AF6238",
"!	c #B26137",
"~	c #B46136",
"{	c #B56336",
"]	c #B86636",
"^	c #BB6635",
"/	c #BD6534",
"(	c #BF6534",
"_	c #C26633",
":	c #C66631",
"<	c #CA6730",
"[	c #CD672F",
"}	c #C7652F",
"|	c #BD6230",
" ",
".",
".",
"+",
"@",
"#",
"$",
"%",
"&",
"*",
"=",
"-",
";",
">",
",",
"'",
")",
"!",
"~",
"{",
"]",
"^",
"/",
"(",
"_",
":",
"<",
"[",
"}",
"|"};
