/* XPM */
static char *folder_32x32[] = {
/* columns rows colors chars-per-pixel */
"32 32 256 2 ",
"   c black",
".  c #0C0A05",
"X  c #0C0906",
"o  c #0D0B07",
"O  c #0E0C08",
"+  c gray6",
"@  c #18140D",
"#  c #1D1912",
"$  c #1E1A12",
"%  c #1E1A13",
"&  c #201A0E",
"*  c #221B10",
"=  c #2F2617",
"-  c #352917",
";  c #382F22",
":  c #3C3120",
">  c #3C3325",
",  c #3D3931",
"<  c #3F3F3C",
"1  c #3F3F3D",
"2  c #3F3F3E",
"3  c #42351F",
"4  c #4D3D24",
"5  c #6C490F",
"6  c #7B571B",
"7  c #4F412D",
"8  c #514128",
"9  c #544632",
"0  c #5B4F39",
"q  c #5C5039",
"w  c #735324",
"e  c #7C5C2C",
"r  c #6C5631",
"t  c #6B5737",
"y  c #7C643C",
"u  c #4F4F4C",
"i  c #5F5E5A",
"p  c #7B6442",
"a  c #6F6E69",
"s  c #6F6F6D",
"d  c #7F7F7E",
"f  c #8A6728",
"g  c #8D6B2A",
"h  c #946F2F",
"j  c #947131",
"k  c #9E7D3B",
"l  c #A17E3F",
"z  c #8D7247",
"x  c #87714F",
"c  c #8F744A",
"v  c #987846",
"b  c #9B7C49",
"n  c #907957",
"m  c #937E5A",
"M  c #9E8153",
"N  c #98835E",
"B  c #A78343",
"V  c #A88845",
"C  c #B0904C",
"Z  c #B2934F",
"A  c #AD8C56",
"S  c #AF905F",
"D  c #B59157",
"F  c #B69655",
"G  c #B69457",
"H  c #B89753",
"J  c #B99A56",
"K  c #B79359",
"L  c #BA965D",
"P  c #B99959",
"I  c #BB9D59",
"U  c #BE9F5B",
"Y  c #BC9A5D",
"T  c #BC985F",
"R  c #BEA05C",
"E  c #9C8761",
"W  c #8D8575",
"Q  c #A18C6E",
"!  c #AA9468",
"~  c #BE9A61",
"^  c #B79A6F",
"/  c #B09976",
"(  c #BCA16A",
")  c #C1A35F",
"_  c #C09C63",
"`  c #C19D65",
"'  c #C39F67",
"]  c #C3A461",
"[  c #C2A064",
"{  c #C5A664",
"}  c #C4A068",
"|  c #C4A069",
" . c #C6A26A",
".. c #C7A669",
"X. c #C0A56C",
"o. c #C8A46C",
"O. c #C9A56D",
"+. c #CAA66F",
"@. c #CCAC6D",
"#. c #CCA870",
"$. c #CCA871",
"%. c #CDA972",
"&. c #CEAA73",
"*. c #CFAB74",
"=. c #C5AC7B",
"-. c #C3AB7E",
";. c #CBAC7C",
":. c #D0AC75",
">. c #D0AC76",
",. c #D1AD76",
"<. c #D2AE77",
"1. c #D3AF78",
"2. c #D0AE7C",
"3. c #CCB27F",
"4. c #D2B075",
"5. c #D4B079",
"6. c #D5B17A",
"7. c #D6B27B",
"8. c #D6B478",
"9. c #D6B578",
"0. c #D7B67B",
"q. c #D7B37C",
"w. c #D7B37D",
"e. c #D8B67B",
"r. c #D8B47D",
"t. c #D8B47E",
"y. c #D9B57F",
"u. c #8F8E89",
"i. c #8F8F8E",
"p. c #BEB8AB",
"a. c #BFBFBE",
"s. c #C5B08C",
"d. c #CCB689",
"f. c #CAB78F",
"g. c #D5B784",
"h. c #DAB680",
"j. c #DAB681",
"k. c #DBB781",
"l. c #DCB882",
"z. c #DCB883",
"x. c #DDB983",
"c. c #DDB984",
"v. c #DEBA84",
"b. c #DEBB84",
"n. c #DEBA85",
"m. c #DFBB85",
"M. c #DFBB86",
"N. c #D9BD86",
"B. c #DFBD84",
"V. c #C0B199",
"C. c #E0BC86",
"Z. c #E0BC87",
"A. c #E2BF87",
"S. c #E1BD88",
"D. c #E2BE89",
"F. c #E3BF89",
"G. c #E3BF8A",
"H. c #D4C19C",
"J. c #E4C08A",
"K. c #E4C18B",
"L. c #E5C18B",
"P. c #E5C28B",
"I. c #E3C38C",
"U. c #E3C18F",
"Y. c #E5C28C",
"T. c #E6C28C",
"R. c #E6C38C",
"E. c #E7C38D",
"W. c #E4C48D",
"Q. c #E7C48D",
"!. c #E8C48D",
"~. c #E8C58E",
"^. c #E9C68E",
"/. c #E9C68F",
"(. c #EAC78F",
"). c #E9CA8F",
"_. c #E0C294",
"`. c #EBC790",
"'. c #EBC890",
"]. c #ECC990",
"[. c #ECC991",
"{. c #EDCA92",
"}. c #EDCB92",
"|. c #EECB92",
" X c #EECC93",
".X c #EFCC93",
"XX c #EFCD93",
"oX c #F0CD94",
"OX c #F1CE95",
"+X c #F1CF95",
"@X c #F2CF95",
"#X c #F2D096",
"$X c #F3D196",
"%X c #F3D197",
"&X c #F4D297",
"*X c #F5D398",
"=X c #F6D499",
"-X c #F7D69A",
";X c #F5D59D",
":X c #F6D69F",
">X c #F9D79B",
",X c #FAD99B",
"<X c #FAD99C",
"1X c #FBDA9D",
"2X c #FCDB9C",
"3X c #FDDB9E",
"4X c #FDDC9E",
"5X c #D6C3A0",
"6X c #DEC6A0",
"7X c #D9C9AB",
"8X c #DACBAE",
"9X c #D4C9B7",
"0X c #EBD2AB",
"qX c #ECD1A8",
"wX c #EFD5AA",
"eX c #F2D4A0",
"rX c #F5D9A8",
"tX c #F3D9AC",
"yX c #F8DDAB",
"uX c #EDD7B4",
"iX c #ECD7B5",
"pX c #EFDCBF",
"aX c #F9E1B6",
"sX c #F6E1BA",
"dX c #F7E1BA",
"fX c #CFCFCE",
"gX c #DEDBD0",
"hX c #E3D8C2",
"jX c #EFDDC0",
"kX c #E3DBCA",
"lX c #F0DEC1",
"zX c #EEE1C5",
"xX c #FBE8C3",
"cX c #FAE8C7",
"vX c #F2E4CC",
"bX c #F6E8CE",
"nX c #F8E9CB",
"mX c #EDE6D5",
"MX c #EEE6D5",
"NX c #EFE7D5",
"BX c #F4EBD6",
"VX c #F5ECD7",
"CX c #FAEDD2",
"ZX c #FAEED6",
"AX c #FCEED4",
"SX c #F5ECD8",
"DX c #F6ECD9",
"FX c #F7EDD9",
"GX c #F7EFDE",
"HX c #F7EFDF",
"JX c #F9F3E3",
"KX c #FCF5E3",
"LX c #FDF6E5",
"PX c OldLace",
"IX c #FEF6E6",
"UX c None",
/* pixels */
"UXUXUXUXUXUXUXUXUXUXUXUXUXUXUXUXUXUXUXUXUXUXUXUXUXUXUXUXUXUXUXUX",
"UXUXUXUXUXUXUXUXUXUXUXUXUXUXUXUXUXUXUXUXUXUXUXUXUXUXUXUXUXUXUXUX",
"UXUXUXUXUXUXUXUXUXUXUXUXUXUXUXUXUXUXUXUXUXUXUXUXUXUXUXUXUXUXUXUX",
"UXUXUXUXUXUXUXUXUXUXUXUXUXUXUXUXUXUXUXUXUXUXUXUXUXUXUXUXUXUXUXUX",
"UXUXUXUXUXUXUXUXUXUXUXUXUXUXUXUXUXUXUXUXUXUXUXUXUXUXUXUXUXUXUXUX",
"UXUXUXUXUXUXUXUXUXUXUXUXUXUXUXUXUXUXUXUXUXUXUXUXUXUXUXUXUXUXUXUX",
"UXUXUXUXUXUXUX        UXUXUXUXUXUXUXUX      UXUXUXUXUXUXUXUXUXUX",
"UXUXUX    $ q ! ).>Xd.  UXUXUXUX  * 0 E Q.I.> UXUXUXUXUXUXUXUXUX",
"UXUX  W N.<X4X4X4X4X3XE   $ 0 N g.oXoXoX X}.m   UXUXUXUXUXUXUXUX",
"UXUX  IX4X4X<X<X,X=X*X*X*XoXoXoXoX}.}.).^.^.;.  UXUX        UXUX",
"UXUX  IX>X=X=X*X*XoXoXoXoX}.}.).^.^.^.Q.C.9.@.X   u u.gXZX, UXUX",
"UXUX  fX%X%XoXoX.X}.'.}.^.^.E.^.C.e.@.] J ( f.p.KXnXtX}.}.$ UXUX",
"UXUX  a. X}.'.'.`.^.^.Y.C.9.@.] U P =.8XBXCXsXeXoX}.'.Y.n   UXUX",
"UXUXUXi.wX^.^.Q.D.0.@.] ) H X.H.hXKXcXrXoX X}.`.^.Y.J.D.; UXUXUX",
"UXUXUXd qXY.0.{ ) ) F d.7XGXAXaX;XoXoX}.`.`.E.J.D.D.D.^   UXUXUX",
"UXUXUXs uXb.) ) R -.GXxXyX*X%XoXoX}.^.^.Y.G.D.D.D.C.C.9 UXUXUXUX",
"UXUXUX2 pX,.I U B HX;X&XoXoX}.`.^.J.J.G.D.D.C.Z.Z.b.2.O UXUXUXUX",
"UXUXUX2 pX..Z C s.dXoX}.}.^.Y.J.D.D.C.D.D.C.Z.b.z.j.x   UXUXUXUX",
"UXUXUX2 pX[ V h NX}.^.^.J.G.D.D.S.D.C.Z.b.l.j.y.q.1.8 UXUXUXUXUX",
"UXUXUX7 vXY l v bXY.G.D.D.D.D.Z.Z.b.b.l.y.y.6.,.&.+.O UXUXUXUXUX",
"UXUXUX+ SXD g / qXG.Z.C.C.C.Z.b.z.j.q.q.1.>.&.o.~ z   UXUXUXUXUX",
"UXUXUX  SXl 6 kX_.Z.Z.Z.b.l.j.y.q.1.>.&.+.' _ L D 4 UXUXUXUXUXUX",
"UXUXUX  VXh e VXZ.Z.b.z.j.y.6.,.&.+. .` T K b r -   UXUXUXUXUXUX",
"UXUXUX  VXf Q uXz.z.q.7.,.,.+.+.' ~ A y 4 &   UXUXUXUXUXUXUXUXUX",
"UXUXUX2 vX5 9XH.q.1.>.&.+.' _ z 8 *     UXUXUXUXUXUXUXUXUXUXUXUX",
"UXUXUX2 5Xw KX1.&.+. .M t =     UXUXUXUXUXUXUXUXUXUXUXUXUXUXUXUX",
"UXUXUX+ NXV._.! p > O   UXUXUXUXUXUXUXUXUXUXUXUXUXUXUXUXUXUXUXUX",
"UXUXUX  i a @   UXUXUXUXUXUXUXUXUXUXUXUXUXUXUXUXUXUXUXUXUXUXUXUX",
"UXUXUXUXUXUXUXUXUXUXUXUXUXUXUXUXUXUXUXUXUXUXUXUXUXUXUXUXUXUXUXUX",
"UXUXUXUXUXUXUXUXUXUXUXUXUXUXUXUXUXUXUXUXUXUXUXUXUXUXUXUXUXUXUXUX",
"UXUXUXUXUXUXUXUXUXUXUXUXUXUXUXUXUXUXUXUXUXUXUXUXUXUXUXUXUXUXUXUX",
"UXUXUXUXUXUXUXUXUXUXUXUXUXUXUXUXUXUXUXUXUXUXUXUXUXUXUXUXUXUXUXUX"
};
