/* XPM */
static char *help_16x16[] = {
/* columns rows colors chars-per-pixel */
"16 16 109 2 ",
"   c black",
".  c #070000",
"X  c #080000",
"o  c #0B0300",
"O  c #0E0C01",
"+  c #0F0C01",
"@  c #1D0000",
"#  c #100E01",
"$  c #1D1802",
"%  c #1E1A02",
"&  c #1F1D02",
"*  c #1C1A0E",
"=  c #1E1717",
"-  c gray11",
";  c #210300",
":  c #2F0802",
">  c #220C0C",
",  c #330000",
"<  c #3A0000",
"1  c #3F0401",
"2  c #310D0D",
"3  c #330E0E",
"4  c #281A1A",
"5  c #2A1B1B",
"6  c #2C2303",
"7  c #2C2404",
"8  c #2E2B04",
"9  c #3B3205",
"0  c gray15",
"q  c #282828",
"w  c #460902",
"e  c #500000",
"r  c #5F0B03",
"t  c #5D0F04",
"y  c #501004",
"u  c #5F1B07",
"i  c #5A1919",
"p  c #6D0000",
"a  c #740000",
"s  c #760200",
"d  c #7A0401",
"f  c #4F2B2B",
"g  c #4F3232",
"h  c #653232",
"j  c #6F3535",
"k  c #4D4807",
"l  c #564307",
"z  c #584807",
"x  c #695A09",
"c  c #6A5F09",
"v  c #6B6109",
"b  c #535353",
"n  c #585858",
"m  c DimGray",
"M  c #717171",
"N  c #840B03",
"B  c #800E03",
"V  c #850C03",
"C  c #860D03",
"Z  c #890F04",
"A  c #8C1104",
"S  c #881906",
"D  c #911505",
"F  c #9A1C07",
"G  c #9C1D07",
"H  c #951D08",
"J  c #9D1E08",
"K  c #942C0C",
"L  c #A32209",
"P  c #A42309",
"I  c #AC290B",
"U  c #913A3A",
"Y  c #C3390F",
"T  c #C63C10",
"R  c #C73C10",
"E  c #CA3E10",
"W  c #8F6F0C",
"Q  c #9E790E",
"!  c #CF4212",
"~  c #D74813",
"^  c #805C5C",
"/  c #9C5B5B",
"(  c #A96F6F",
")  c #AE7474",
"_  c #B17777",
"`  c #B37979",
"'  c #B67C7C",
"]  c #B77D7D",
"[  c #8B800C",
"{  c #A2850E",
"}  c #AD880F",
"|  c #B7A410",
" . c #C79B9B",
".. c #C9ACAC",
"X. c #D0B3B3",
"o. c #D5B8B8",
"O. c gray76",
"+. c gray87",
"@. c #E5D6D6",
"#. c #E9DBDB",
"$. c gray89",
"%. c #E9E9E9",
"&. c gray93",
"*. c #F4F4F4",
"=. c gray96",
"-. c #F8F8F8",
";. c #F9F9F9",
":. c gray98",
">. c None",
/* pixels */
">.>.>.>.>.>.>.>.>.>.>.>.>.>.>.>.",
">.>.>.>.>.>.>.>.>.>.>.>.>.>.>.>.",
">.>.>.>.>.>.>.>.    9 # >.>.>.>.",
">.>.>.>.>.  : 1 f b * c # >.>.>.",
">.+ v 8 > S E J ] -.+.b   >.>.>.",
"  { [ q ..Z Y G ( %.-.X.2 >.>.>.",
"  | & O.#.s r ; = h s d p . >.>.",
">.k 0 &.=.j   >.>.  K R C @ >.>.",
">.  4 _ _ g >.>.>.>.y L N @ >.>.",
">.>.; F P t   >.>.  i ) ' 5 + >.",
">.>.o H ! R w o o u s @.$.$ Q   ",
">.>.>.< a a U / A ~ D  .n l }   ",
">.>.>.  M *.-.o.N I B 2 7 W 6 >.",
">.>.>.  z - m ^ e , o     >.>.>.",
">.>.>.>.$ c $   >.>.>.>.>.>.>.>.",
">.>.>.>.>.>.>.>.>.>.>.>.>.>.>.>."
};
