/* XPM */
static char *settings_16x16[] = {
/* columns rows colors chars-per-pixel */
"16 16 91 1 ",
"  c black",
". c #060606",
"X c #0E0900",
"o c gray4",
"O c gray5",
"+ c #0E0E0E",
"@ c #101010",
"# c #131313",
"$ c #191919",
"% c gray11",
"& c #291A00",
"* c #2B2200",
"= c #2B2300",
"- c #2C2200",
"; c gray15",
": c gray18",
"> c gray19",
", c gray20",
"< c #353535",
"1 c #393939",
"2 c gray23",
"3 c #3F3F3F",
"4 c #4F4500",
"5 c #584700",
"6 c #564800",
"7 c #5C4D00",
"8 c #5E4E00",
"9 c #4B451B",
"0 c #776600",
"q c #5E582F",
"w c #4B4B4B",
"e c #505050",
"r c #515151",
"t c #535353",
"y c gray33",
"u c #585858",
"i c gray35",
"p c #5B5B5B",
"a c gray36",
"s c gray40",
"d c gray44",
"f c gray46",
"g c #767676",
"h c #797979",
"j c gray50",
"k c #9A7400",
"l c #A78600",
"z c #B78800",
"x c #C79600",
"c c #C89900",
"v c #CB9C00",
"b c #CB9D00",
"n c #CC9E00",
"m c #CD9E00",
"M c #DB9B00",
"N c #CDA500",
"B c #CEA600",
"V c #D2A200",
"C c #D1A600",
"Z c #D2A700",
"A c #D4A800",
"S c #E6B000",
"D c #E3BA00",
"F c #F5D006",
"G c #838383",
"H c #868686",
"J c gray54",
"K c #8E8E8E",
"L c #989898",
"P c gray60",
"I c #9D9D9D",
"U c gray63",
"Y c gray68",
"T c #AEAEAE",
"R c #AFAFAF",
"E c gray69",
"W c #B1B1B1",
"Q c #B6B6B6",
"! c gray74",
"~ c gray",
"^ c #CACACA",
"/ c #CBCBCB",
"( c gray80",
") c #D0D0D0",
"_ c #D2D2D2",
"` c #D7D7D7",
"' c #D8D8D8",
"] c #DFDFDF",
"[ c gray89",
"{ c gray97",
"} c None",
/* pixels */
"}}}}}}}}}}}}}}}}",
"}}}}}}}}}}}}}}}}",
"}}}}}}}}}}}}}}}}",
"}}w2 }}}}}} }}}}",
"} H[G }}}+sf.$}}",
"}}@W~e } K(fjI }",
"}}} a{p +/'`Qe }",
"}}}} p]w>yPd< }}",
"}}}}} <Rq8@ }}}}",
"}}}}};e9FMl*}}}}",
"}}} pWJ4VSZN-}}}",
"} 3~))Q@8vxZN*}}",
"}$/TU'h  0ncZD&}",
"}+H:TP%}} 6mmzX}",
"}} o2o}}}} 5kX}}",
"}}}}}}}}}}}} }}}"
};
