/* XPM */
static char *shutdown_16x16[] = {
/* columns rows colors chars-per-pixel */
"16 16 79 1 ",
"  c black",
". c #0D0D0F",
"X c #000510",
"o c #0F131F",
"O c #11121C",
"+ c #1A1B1E",
"@ c #3F361C",
"# c #3F361D",
"$ c #121621",
"% c #161721",
"& c #1D1F27",
"* c #011643",
"= c #212D50",
"- c #242F52",
"; c #7F7843",
": c #7F7944",
"> c #40446D",
", c #4D5279",
"< c #4B507F",
"1 c #53577E",
"2 c #65627A",
"3 c #64687C",
"4 c #555B91",
"5 c #5B6197",
"6 c #5C6297",
"7 c #5C6298",
"8 c #626586",
"9 c #78768D",
"0 c #646A9F",
"q c #757897",
"w c #7D7F91",
"e c #797F97",
"r c #656BA0",
"t c #666CA0",
"y c #676DA1",
"u c #6D73A7",
"i c #6E74A8",
"p c #7076A9",
"a c #7177AA",
"s c #7278AB",
"d c #767CAF",
"f c #777DB0",
"g c #7A80B3",
"h c #7B81B4",
"j c #7C82B5",
"k c #7E84B7",
"l c #7F85B7",
"z c #8B8D9A",
"x c #8A8EA7",
"c c #868BB6",
"v c #878CB6",
"b c #8086B8",
"n c #848ABC",
"m c #858BBD",
"M c #868CBE",
"N c #878DBF",
"B c #9FA1AC",
"V c #A2A5BC",
"C c #FFE882",
"Z c #FFEA84",
"A c #888EC0",
"S c #898FC1",
"D c #8F95C6",
"F c #8D9BCA",
"G c #9095C2",
"H c #9096C6",
"J c #9096C7",
"K c #9197C7",
"L c #9197C8",
"P c #9298C8",
"I c #999FCF",
"U c #999FD0",
"Y c #96A4CF",
"T c #9DA3D1",
"R c #B6BAD6",
"E c #B1B6DD",
"W c #B4B9DE",
"Q c #BBBFE0",
"! c None",
/* pixels */
"!!!!!!!!!!!!!!!!",
"!!!!!!!!!!!!!!!!",
"!!!!!!!!!!!!!!!!",
"!!!!!!!!!!!!!!!!",
"!!!!    !!!   !!",
"!!!.wRQx !! DG&!",
"!!.VEIDq@ ! nDv ",
"!X3WUJNBC ! gNJ$",
"!*YTPNk9: ! pjN-",
"!*FPAkd8@ ! tph=",
"!XeAbduzZ ! 7tso",
"!!+cfi02: ! 47, ",
"!!!%1r6> !! 4<O!",
"!!!!     !!   !!",
"!!!!!!!!!!!!!!!!",
"!!!!!!!!!!!!!!!!"
};
