/* XPM */
static char *help_32x32[] = {
/* columns rows colors chars-per-pixel */
"32 32 233 2 ",
"   c black",
".  c #070000",
"X  c #080000",
"o  c #090100",
"O  c #0E0000",
"+  c #0C0300",
"@  c #0E0C01",
"#  c #0F0C01",
"$  c #0C0C0C",
"%  c gray5",
"&  c #150000",
"*  c #1A0300",
"=  c #1D0000",
"-  c #1F0200",
";  c #190702",
":  c #100F01",
">  c #1D1902",
",  c #1C190F",
"<  c #1C1B0E",
"1  c gray9",
"2  c #1B1B1B",
"3  c gray11",
"4  c #260601",
"5  c #2B0000",
"6  c #2C0000",
"7  c #320000",
"8  c #3A0000",
"9  c #310902",
"0  c #2B1616",
"q  c #2B2203",
"w  c #2B2303",
"e  c #2C2403",
"r  c #2D2704",
"t  c #2E2904",
"y  c #2E2B04",
"u  c #382A05",
"i  c #3B3205",
"p  c #3C3405",
"a  c #3D3805",
"s  c #3D3905",
"d  c #222222",
"f  c #282828",
"g  c gray16",
"h  c #312A2A",
"j  c #460300",
"k  c #4F0000",
"l  c #470A02",
"z  c #570000",
"x  c #5E0000",
"c  c #570B02",
"v  c #441204",
"b  c #5C1906",
"n  c #401515",
"m  c #431818",
"M  c #401B1B",
"N  c #5F1717",
"B  c #6A0300",
"V  c #6D0000",
"C  c #740000",
"Z  c #750100",
"A  c #770200",
"S  c #770802",
"D  c #7F0802",
"F  c #7C0F0F",
"G  c #651A07",
"H  c #741A07",
"J  c #4A3D06",
"K  c #543C07",
"L  c #692209",
"P  c #792309",
"I  c #492C2C",
"U  c #533636",
"Y  c #4C4306",
"T  c #4C4507",
"R  c #564307",
"E  c #584A08",
"W  c #5B5108",
"Q  c #644B08",
"!  c #644D09",
"~  c #655009",
"^  c #675609",
"/  c #73580A",
"(  c #76610A",
")  c #78670A",
"_  c #796B0B",
"`  c #796C0B",
"'  c #7B710B",
"]  c #7B720B",
"[  c gray26",
"{  c gray28",
"}  c #515151",
"|  c gray37",
" . c #626262",
".. c #676767",
"X. c gray42",
"o. c gray43",
"O. c #800902",
"+. c #820A02",
"@. c #830B02",
"#. c #840C03",
"$. c #870D03",
"%. c #890F04",
"&. c #8A1004",
"*. c #8B1004",
"=. c #8C1104",
"-. c #8C1204",
";. c #8D1205",
":. c #941806",
">. c #971906",
",. c #971907",
"<. c #991B07",
"1. c #9D1E08",
"2. c #9E1F08",
"3. c #841F1F",
"4. c #851F1F",
"5. c #852109",
"6. c #982008",
"7. c #A32209",
"8. c #A62409",
"9. c #A7250A",
"0. c #AA280A",
"q. c #AD2A0B",
"w. c #AE2A0B",
"e. c #B02C0B",
"r. c #B22D0C",
"t. c #B32E0C",
"y. c #B6300D",
"u. c #BA330D",
"i. c #BB330E",
"p. c #BB340E",
"a. c #BC350E",
"s. c #BD350E",
"d. c #BF360E",
"f. c #BD3A0F",
"g. c #8C2E2E",
"h. c #8A3333",
"j. c #913A3A",
"k. c #933C3C",
"l. c #953E3E",
"z. c #963F3F",
"x. c #C33A0F",
"c. c #C43A0F",
"v. c #C53B10",
"b. c #C63B10",
"n. c #856E0C",
"m. c #87760C",
"M. c #CD4111",
"N. c #CF4211",
"B. c #D04312",
"V. c #D14412",
"C. c #D24412",
"Z. c #D34512",
"A. c #D44612",
"S. c #D54613",
"D. c #D64713",
"F. c #D74813",
"G. c #D84913",
"H. c #D94913",
"J. c #DA4B14",
"K. c #DB4B14",
"L. c #954C4C",
"P. c #A45C5C",
"I. c #A75E5E",
"U. c #A46363",
"Y. c #AE6C6C",
"T. c #AE7474",
"R. c #AB7F7F",
"E. c #B07676",
"W. c #98870D",
"Q. c #AC830F",
"!. c #A58F0F",
"~. c #A7960F",
"^. c #BA8D10",
"/. c #BB9210",
"(. c #BD9610",
"). c #B59F10",
"_. c #BF9D11",
"`. c #C89911",
"'. c #C5AF12",
"]. c #D9AA13",
"[. c #C7B512",
"{. c #DCB413",
"}. c #D3B813",
"|. c #E8B714",
" X c #E9BA14",
".X c #E1C114",
"XX c #EBC115",
"oX c #ECC415",
"OX c #E4CA14",
"+X c #F0CF15",
"@X c #F2D416",
"#X c gray51",
"$X c #939393",
"%X c #959595",
"&X c #AC8080",
"*X c #AC8181",
"=X c #B4B4B4",
"-X c #BCBCBC",
";X c #C39797",
":X c #C29E9E",
">X c #CBAEAE",
",X c #CEB1B1",
"<X c #CCBDBD",
"1X c #DABDBD",
"2X c #C6C6C6",
"3X c gray79",
"4X c gray80",
"5X c #CDCDCD",
"6X c #D0D0D0",
"7X c gray83",
"8X c gray84",
"9X c #D7D7D7",
"0X c #DADADA",
"qX c #E8D9D9",
"wX c #E4E4E4",
"eX c #EBE3E3",
"rX c gray91",
"tX c gray92",
"yX c #ECECEC",
"uX c #EEEEEE",
"iX c gray94",
"pX c #F1F1F1",
"aX c gray95",
"sX c #F3F3F3",
"dX c #F4F4F4",
"fX c #F6F6F6",
"gX c #F8F8F8",
"hX c #F9F9F9",
"jX c gray98",
"kX c #FBFBFB",
"lX c gray99",
"zX c #FDFDFD",
"xX c None",
/* pixels */
"xXxXxXxXxXxXxXxXxXxXxXxXxXxXxXxXxXxXxXxXxXxXxXxXxXxXxXxXxXxXxXxX",
"xXxXxXxXxXxXxXxXxXxXxXxXxXxXxXxXxXxXxXxXxXxXxXxXxXxXxXxXxXxXxXxX",
"xXxXxXxXxXxXxXxXxXxXxXxXxXxXxXxXxXxXxXxXxXxXxXxXxXxXxXxXxXxXxXxX",
"xXxXxXxXxXxXxXxXxXxXxXxXxXxXxXxXxXxXxXxXxXxXxXxXxXxXxXxXxXxXxXxX",
"xXxXxXxXxXxXxXxXxXxXxXxXxXxXxXxXxXxXxXxXxXxXxXxXxXxXxXxXxXxXxXxX",
"xXxXxXxXxXxXxXxXxXxXxXxXxXxXxXxXxXxXxXxXxXxXxXxXxXxXxXxXxXxXxXxX",
"xXxXxXxXxXxXxXxXxXxXxXxXxXxXxXxXxXxXxXxXxXxXxXxXxXxXxXxXxXxXxXxX",
"xXxXxXxXxXxXxXxXxXxXxXxXxXxXxXxXxXxXxXxXxXxXxXxXxXxXxXxXxXxXxXxX",
"xXxXxXxXxXxXxXxXxXxXxXxXxXxXxXxXxX  Y ' _ ^ # xXxXxXxXxXxXxXxXxX",
"xXxXxXxXxXxXxXxXxXxXxXxXxX  X - - h $ T ' }._.: xXxXxXxXxXxXxXxX",
"xXxXxXxXxXxXxXxXxXxXxX  v 5.0.7.C eXuX-X .< !.( xXxXxXxXxXxXxXxX",
"xXxXxXxXxX  J / n.W 2 z B.V.V.M.C zXzXkXsX3Xf i   xXxXxXxXxXxXxX",
"xXxXxXxX  !. X/.` f 7XZ S.S.S.G.C yXiXjXzXjXrX}   xXxXxXxXxXxXxX",
"xXxXxXxXr oX!   $ 2XfXz.9.e.w.e.C 4X8XwXiXzXqX&X& xXxXxXxXxXxXxX",
"xXxXxXxX# |.R   o.iXzXY.+.*.c 4   d | R.U.g.C Z z   xXxXxXxXxXxX",
"xXxXxXxX  Q.).$ 7XjXjX>XZ 5   xXxXxXxX& 6.a.e.$.Z O xXxXxXxXxXxX",
"xXxXxXxXxXw [.[ rXzXdX0XM   xXxXxXxXxXxXL G.b.2.A 6 xXxXxXxXxXxX",
"xXxXxXxXxX  a X.iXzXuX6X1 xXxXxXxXxXxXxX* F.V.w.+.8 xXxXxXxXxXxX",
"xXxXxXxXxXxX  U ;X1X,X*X  xXxXxXxXxXxXxX  x.a.8.+.8   xXxXxXxXxX",
"xXxXxXxXxXxXxXl ;.;.*.#.- xXxXxXxXxXxXxX0 h.j.z.k.M u   xXxXxXxX",
"xXxXxXxXxXxXxX9 y.V.G.x.H   xXxXxXxXxX  N 7XiXlXiXf `.> xXxXxXxX",
"xXxXxXxXxXxXxXX ,.a.V.F.v.b   xXxXxXO P A >XgXlX5X  (.~.  xXxXxX",
"xXxXxXxXxXxXxX  j <.a.b.u.>.B I n G f.F.0.P.lXdX{   ) +X  xXxXxX",
"xXxXxXxXxXxXxXxX. x Z F z.T.<X5XL.w.G.F.t.4.gX$X  # '.].  xXxXxX",
"xXxXxXxXxXxXxXxX  $ -XfXzXjXiXuXT.2.x.u.0.Z %Xw ^.XXOXK xXxXxXxX",
"xXxXxXxXxXxXxXxX  / , #XiXjXzXzXI.%.>.=.S 7   ~ Q p : xXxXxXxXxX",
"xXxXxXxXxXxXxXxXxXE {.e 3 X.=XwX3.V k 5 .   xXxXxXxXxXxXxXxXxXxX",
"xXxXxXxXxXxXxXxXxX  W.@X.Xm.r         xXxXxXxXxXxXxXxXxXxXxXxXxX",
"xXxXxXxXxXxXxXxXxXxX  t a t   xXxXxXxXxXxXxXxXxXxXxXxXxXxXxXxXxX",
"xXxXxXxXxXxXxXxXxXxXxXxXxXxXxXxXxXxXxXxXxXxXxXxXxXxXxXxXxXxXxXxX",
"xXxXxXxXxXxXxXxXxXxXxXxXxXxXxXxXxXxXxXxXxXxXxXxXxXxXxXxXxXxXxXxX",
"xXxXxXxXxXxXxXxXxXxXxXxXxXxXxXxXxXxXxXxXxXxXxXxXxXxXxXxXxXxXxXxX"
};
