/* XPM */
static char *restart_16x16[] = {
/* columns rows colors chars-per-pixel */
"16 16 82 1 ",
"  c black",
". c #000C00",
"X c #0E0E0E",
"o c #021602",
"O c #021603",
"+ c #001900",
"@ c gray7",
"# c #131313",
"$ c #1B1B1B",
"% c gray12",
"& c #002600",
"* c #003300",
"= c #163816",
"- c #173917",
"; c gray16",
": c #2F2F2F",
"> c gray19",
", c #343434",
"< c #0B470B",
"1 c #0D500D",
"2 c #0F5D0F",
"3 c #155716",
"4 c #006600",
"5 c #434343",
"6 c #494949",
"7 c gray35",
"8 c #4B794B",
"9 c #676767",
"0 c #6C6C6C",
"q c #009900",
"w c #0CA90C",
"e c #03B403",
"r c #06B106",
"t c #09B509",
"y c #248225",
"u c #00CD00",
"i c #01CD01",
"p c #1EC61E",
"a c #2CD82C",
"s c #478947",
"d c #5FBD5F",
"f c #4DC64D",
"g c #4EE04E",
"h c #52E152",
"j c #5EE45E",
"k c #68DB68",
"l c #7FA780",
"z c #838383",
"x c #848484",
"c c gray53",
"v c #929292",
"b c gray59",
"n c gray61",
"m c gray62",
"M c #92BA93",
"N c gray63",
"B c #A7A7A7",
"V c gray70",
"C c #B4B4B4",
"Z c #B7B7B7",
"A c #B9B9B9",
"S c gray73",
"D c #91E491",
"F c #90EE90",
"G c #C8C8C8",
"H c #CACACA",
"J c #CDCDCD",
"K c LightGray",
"L c #D5D5D5",
"P c #D8D8D8",
"I c #E1E1E1",
"U c #E7E7E7",
"Y c #EAEAEA",
"T c gray92",
"R c #ECECEC",
"E c #F1F1F1",
"W c gray95",
"Q c #F3F3F3",
"! c #F4F4F4",
"~ c gray96",
"^ c #F6F6F6",
"/ c None",
/* pixels */
"////////////////",
"////////////////",
"//////@6xz /////",
"/////9!RTTv ////",
"/////0U!RTTv ///",
"//// $5J!TTTv //",
"/// sky$:LEER,//",
"///-8Dgr*GIAn;//",
"//  -faiXEANN;//",
"//32 1eq7!GZV;//",
"/ dht*.+b!JPA;//",
"/OFjw.+c!!KMA;//",
"/O<pii+#G!GlZ%//",
"///&4+//#ABx:///",
"////////////////",
"////////////////"
};
