/* XPM */
static char *app_16x16[] = {
/* columns rows colors chars-per-pixel */
"16 16 91 1 ",
"  c black",
". c gray3",
"X c #0E0E0E",
"o c gray6",
"O c #0A101D",
"+ c #101010",
"@ c #191919",
"# c #1B1B1B",
"$ c gray11",
"% c #121926",
"& c #1C2332",
"* c #232323",
"= c gray15",
"- c #22272F",
"; c #282A2F",
": c #2D2D2D",
"> c gray21",
", c #393939",
"< c #3A3A3A",
"1 c gray24",
"2 c #3E3E3E",
"3 c #273552",
"4 c #3E434F",
"5 c #354564",
"6 c #3A4762",
"7 c #42464F",
"8 c gray31",
"9 c gray32",
"0 c #565656",
"q c #56637E",
"w c #626262",
"e c #6C6C6C",
"r c #747474",
"t c #76797F",
"y c gray47",
"u c #797979",
"i c #50658F",
"p c #546C9B",
"a c #5C709A",
"s c #757D8F",
"d c #5571A8",
"f c #5774AE",
"g c #597ABD",
"h c #6C8AC5",
"j c #6587CB",
"k c #708DC7",
"l c #7492CF",
"z c #6C8ED2",
"x c #799BDF",
"c c #898989",
"v c gray57",
"b c #939393",
"n c #959595",
"m c gray59",
"M c #94979F",
"N c gray61",
"B c #8491AD",
"V c #8C9CBF",
"C c #A2A2A2",
"Z c gray65",
"A c #AAAAAA",
"S c #AFAFAF",
"D c gray71",
"F c #B7B7B7",
"G c gray72",
"H c #8BA1CF",
"J c #84A4E5",
"K c #8FAEEE",
"L c #93B3F6",
"P c #97B7F8",
"I c #9EBCFB",
"U c #B5C5E9",
"Y c #B3CBFF",
"T c #C0C4CF",
"R c #CBCBCB",
"E c gray80",
"W c #C6CDDE",
"Q c #D8D8D8",
"! c #DADADA",
"~ c #C2D0EE",
"^ c #D2D8E8",
"/ c #C5D7FE",
"( c #C6D8FF",
") c #C8DAFF",
"_ c #D3E0FF",
"` c #D4E1FC",
"' c #E1E1E1",
"] c #EAEAEA",
"[ c #E8EEFF",
"{ c #EDF2FF",
"} c None",
/* pixels */
"}}}}}}}}}}}}}}}}",
"}}}}}}}}}}}}}}}}",
"}}}}}}}}}@=X}}}}",
"}}}}}}} 19cv=}}}",
"}}}}}}}XySARe}}}",
"}}}}}} ,nnr]w}}}",
"}}}} 63%$ZRN>}}}",
"}}};&hzgdX9,$.}}",
"}} kjxPIlO=rCy}}",
"}} pLHq/(V1bD!@}",
"}}aJY4i`W70G'n}}",
"}}5K)U~{^ F!Z:}}",
"}} f_[{Mt  =+}}}",
"}}}-sBT  }}}}}}}",
"}}}}}  }}}}}}}}}",
"}}}}}}}}}}}}}}}}"
};
