/* XPM */
static char *logout_32x32[] = {
/* columns rows colors chars-per-pixel */
"32 32 134 2 ",
"   c #000000",
".  c #07080C",
"X  c gray6",
"o  c #1C1303",
"O  c #0C0E16",
"+  c #111111",
"@  c #1B1A15",
"#  c #12131F",
"$  c gray12",
"%  c #211A0A",
"&  c #241E11",
"*  c #3E2A05",
"=  c #35280F",
"-  c #3E2C0C",
";  c #282010",
":  c #382C13",
">  c #3E3319",
",  c #171827",
"<  c #1B1D2F",
"1  c #1C1E30",
"2  c #222222",
"3  c #2F2F2F",
"4  c #352E2C",
"5  c #22243A",
"6  c #2C2C3E",
"7  c #3D3635",
"8  c #3F3F3F",
"9  c #412F0C",
"0  c #4C3407",
"q  c #543908",
"w  c #453415",
"e  c #483716",
"r  c #483816",
"t  c #43381E",
"y  c #553F16",
"u  c #443828",
"i  c #574219",
"p  c #624209",
"a  c #6F4B0A",
"s  c #704C0B",
"d  c #634A1B",
"f  c #765211",
"g  c #7C5916",
"h  c #7D5A18",
"j  c #504024",
"k  c #57472D",
"l  c #5D4E2D",
"z  c #5C4D32",
"x  c #5F5034",
"c  c #6A5222",
"v  c #60512F",
"b  c #715927",
"n  c #785A20",
"m  c #775F2D",
"M  c #645433",
"N  c #7D6532",
"B  c #262942",
"V  c #2B2D44",
"C  c #2B2F4A",
"Z  c #313453",
"A  c #35395B",
"S  c #3B3F65",
"D  c gray31",
"F  c #5F5F5F",
"G  c #40456F",
"H  c #424771",
"J  c #464B77",
"K  c #464B78",
"L  c #6F6F6F",
"P  c gray50",
"I  c #9B5C00",
"U  c #855517",
"Y  c #815E1D",
"T  c #83601F",
"R  c #BE7509",
"E  c #AE6E18",
"W  c #856321",
"Q  c #896625",
"!  c #8B6927",
"~  c #86692F",
"^  c #8D6B29",
"/  c #906F2C",
"(  c #92712E",
")  c #816A37",
"_  c #866E3C",
"`  c #957432",
"'  c #9A7635",
"]  c #997836",
"[  c #9E7D3A",
"{  c #A66F26",
"}  c #A0742F",
"|  c #977E47",
" . c #A67F41",
".. c #AD7E43",
"X. c #A1813E",
"o. c #CA800F",
"O. c #D79023",
"+. c #D89023",
"@. c #9C844D",
"#. c #A58542",
"$. c #AB8647",
"%. c #A88946",
"&. c #AC8D4A",
"*. c #B08D4D",
"=. c #AF904C",
"-. c #B1914E",
";. c #AF8C50",
":. c #B49552",
">. c #B79854",
",. c #B99A56",
"<. c #B49859",
"1. c #BC9D5A",
"2. c #BFA05D",
"3. c #B89B7C",
"4. c #C1A35F",
"5. c #E6B264",
"6. c #E7B66C",
"7. c #EABF7F",
"8. c gray56",
"9. c #9F9F9F",
"0. c #AFAFAF",
"q. c #C6AE98",
"w. c #D2B693",
"e. c #E4BC82",
"r. c #EDC890",
"t. c #F3DAB4",
"y. c gray81",
"u. c #DFDFDF",
"i. c #F7E8D0",
"p. c #F9ECD9",
"a. c #EFEFEF",
"s. c #FEFBF7",
"d. c white",
"f. c None",
/* pixels */
"f.f.f.f.f.f.f.f.f.f.f.f.f.f.f.f.f.f.f.f.f.f.f.f.f.f.f.f.f.f.f.f.",
"f.f.f.f.f.f.f.f.f.f.f.f.f.f.f.f.f.f.f.f.f.f.f.f.f.f.f.f.f.f.f.f.",
"f.f.f.f.f.f.f.f.f.f.f.f.f.f.f.f.f.f.f.f.f.f.f.f.f.f.f.f.f.f.f.f.",
"f.f.f.f.f.f.f.f.f.f.f.f.f.f.f.f.f.f.f.f.f.f.f.f.f.f.f.f.f.f.f.f.",
"f.f.f.f.f.f.f.f.f.f.f.f.f.f.f.f.f.f.f.f.f.f.f.f.f.f.f.f.f.f.f.f.",
"f.f.f.f.f.f.f.  * q 9 - 9 w w w e e r r e = % % o         f.f.f.",
"f.f.f.f.f.f.f.  p f h T Q ^ ( ` ` ' ] ] ` ( / ! d         f.f.f.",
"f.f.f.f.f.f.f.  f h W ! / ` ] [ X.#.X.X.X.[ ] ` c         f.f.f.",
"f.f.f.    f.f.  g T ! ( ] [ #.%.&.&.&.*.%.%.X.[ b         f.f.f.",
"f.f.  P y.+ f.  Y ! ( ] [ %.&.:.-.,.>.-.-.-.$.#.m         f.f.f.",
"f.+ 9.d.d.a.3   Q / ] X.%.=.:.1.4.4.4.4.4.,.-.*.N         f.f.f.",
"  y.d.d.d.d.a.3 i ` [ #.=.>.1.4.4.4.4.4.4.4.1.:.)         f.f.f.",
"  D a.d.d.d.d.a.8 w X.&.:.1.4.4.4.4.4.4.4.4.4.1.|         f.f.f.",
"f.f.3 a.d.d.d.d.d.F > =.,.2.4.4.4.*.3.w...#.4.2.v         f.f.f.",
"f.f.f.3 a.d.d.d.d.d.F t <.2.4.4.:.q.s.i.e.E ,.4.k         f.f.f.",
"f.f.f.f.2 y.d.d.d.d.d.8.& <.4.4.$.i.p.t.5.R $.4.v . . .   f.f.f.",
"f.f.f.f.f.$ d.d.d.d.d.d.@.v 4.4.$.e.r.6.+.I *.4.l O O O   f.f.f.",
"f.f.f.f.3 y.d.d.d.d.d.y., @.4.4.4.{ +.o.I U 4.4.v # # #   f.f.f.",
"f.f.  8 a.d.d.d.d.d.9.% | 3.4.4.4.1.} } ' 1.4.2.l , , ,   f.f.f.",
"f.  F d.d.d.d.d.d.L ; @.-.2.4.4.4.4.4.4.4.4.2.,.M 1 1 1   f.f.f.",
"  9.d.d.d.d.d.a.D : [ %.-.>.1.4.4.4.4.4.4.4.1.:.M 5 5 5   f.f.f.",
"  y.d.d.d.d.u.3 y ^ ] X.%.&.,.,.2.4.4.2.1.,.:.&.z B 5 5   f.f.f.",
"f.+ y.d.d.y.+ o T ! / ] @.%.&.-.:.,.,.,.:.=.&.#.z C C 5   f.f.f.",
"f.f.+ 0.9.    o g W ^ ( ] [ #.%.&.&.&.&.&.%.X.[ k Z Z 5   f.f.f.",
"f.f.f.    f.f.o f h W ! / ' [ [ X.X.X.#.[ [ ] ` u A A B f.f.f.f.",
"f.f.f.f.f.f.f.o a f h W Q ^ ( ` ] ] ] ~ c k 7 6 A S S C f.f.f.f.",
"f.f.f.f.f.f.f.o a a f g h W h d j 7 V Z H G G G G G G Z f.f.f.f.",
"f.f.f.f.f.f.f.o a p 0 w 4 V A H K K K K K K J H K J J A f.f.f.f.",
"f.f.f.f.f.f.f.              O # , # # # # # # , # 1 B 1 f.f.f.f.",
"f.f.f.f.f.f.f.f.f.f.f.f.f.f.f.f.f.f.f.f.f.f.f.f.f.f.f.f.f.f.f.f.",
"f.f.f.f.f.f.f.f.f.f.f.f.f.f.f.f.f.f.f.f.f.f.f.f.f.f.f.f.f.f.f.f.",
"f.f.f.f.f.f.f.f.f.f.f.f.f.f.f.f.f.f.f.f.f.f.f.f.f.f.f.f.f.f.f.f."
};
