/* XPM */
static char *reboot_32x32[] = {
/* columns rows colors chars-per-pixel */
"32 32 186 2 ",
"   c black",
".  c #020509",
"X  c #030509",
"o  c #05080C",
"O  c #05090C",
"+  c #070D18",
"@  c #0C1319",
"#  c #101011",
"$  c #1B1C1E",
"%  c #1E1E1F",
"&  c #0F1924",
"*  c #0F1A28",
"=  c #101924",
"-  c #131C26",
";  c #141C25",
":  c #111C2A",
">  c #0D1A30",
",  c #121E30",
"<  c #162537",
"1  c #2E3339",
"2  c #2F343A",
"3  c #33373B",
"4  c #37393C",
"5  c #182D52",
"6  c #1C3253",
"7  c #2F3943",
"8  c #203348",
"9  c #26394C",
"0  c #28384B",
"q  c #2A3B4D",
"w  c #223D69",
"e  c #3E4954",
"r  c #2B4666",
"t  c #354B63",
"y  c #234170",
"u  c #294772",
"i  c #294773",
"p  c #26477E",
"a  c #2E4F7E",
"s  c #3F5B7B",
"d  c #4E5359",
"f  c #4F5459",
"g  c #56595C",
"h  c #5A5C5D",
"j  c #545C65",
"k  c #6C6D6E",
"l  c #636B75",
"z  c #666D76",
"x  c #264983",
"c  c #274A84",
"v  c #2A4E89",
"b  c #2B4F89",
"n  c #2D528C",
"m  c #2F538D",
"M  c #325892",
"N  c #385E97",
"B  c #37609A",
"V  c #3B649E",
"C  c #406A9F",
"Z  c #456D9C",
"A  c #476F9D",
"S  c #4D7299",
"D  c #4B729E",
"F  c #537190",
"G  c #466CA1",
"H  c #406AA4",
"J  c #436EA8",
"K  c #4873A5",
"L  c #4471AB",
"P  c #557BAE",
"I  c #4978B1",
"U  c #4E7EB8",
"Y  c #6C8299",
"T  c #5180B4",
"R  c #5B87B3",
"E  c #5C86B8",
"W  c #608FBF",
"Q  c #7196BA",
"!  c #5789C1",
"~  c #598AC2",
"^  c #598BC2",
"/  c #5D8DC3",
"(  c #5E8DC2",
")  c #6F94C0",
"_  c #6996C7",
"`  c #6A9BCD",
"'  c #7097C4",
"]  c #7599C4",
"[  c #739CCB",
"{  c #759CC8",
"}  c #769ECC",
"|  c #799DC8",
" . c #71A0CF",
".. c #77A2CF",
"X. c #7BA0CA",
"o. c #78A0CD",
"O. c #79A0CD",
"+. c #7DA2CC",
"@. c #7BA7D3",
"#. c #7DA5D0",
"$. c #7FA8D1",
"%. c #7DA8D3",
"&. c #7FA9D3",
"*. c #909599",
"=. c #93979B",
"-. c #8598AB",
";. c #81A0BF",
":. c #BDBDBE",
">. c #9CB3C9",
",. c #82ACD5",
"<. c #85ACD4",
"1. c #84ADD6",
"2. c #87AFD7",
"3. c #8DAED4",
"4. c #8DAFD6",
"5. c #8EB0D5",
"6. c #8AB1D8",
"7. c #8BB1D8",
"8. c #8CB2D8",
"9. c #8EB3D9",
"0. c #90B0D6",
"q. c #90B1D6",
"w. c #90B5DA",
"e. c #91B5DA",
"r. c #93B7DB",
"t. c #94B7DB",
"y. c #97BADC",
"u. c #99B9DB",
"i. c #98BADC",
"p. c #99BBDD",
"a. c #9ABCDD",
"s. c #9FBDDC",
"d. c #9EBEDE",
"f. c #A1C0DF",
"g. c #BDC7D2",
"h. c #A2C1E0",
"j. c #A4C2E0",
"k. c #A6C4E1",
"l. c #A7C4E1",
"z. c #A8C5E2",
"x. c #A9C5E2",
"c. c #AAC6E2",
"v. c #AEC8E4",
"b. c #AEC9E4",
"n. c #AFC9E4",
"m. c #B0CAE4",
"M. c #B1CBE5",
"N. c #B2CBE5",
"B. c #B3CCE5",
"V. c #B4CDE5",
"C. c #B4CDE6",
"Z. c #B6CEE6",
"A. c #B7CEE6",
"S. c #B7CFE6",
"D. c #B7CFE7",
"F. c #BFD2E7",
"G. c #BAD1E8",
"H. c #BBD2E8",
"J. c #BCD2E8",
"K. c #BDD2E8",
"L. c #BDD3E9",
"P. c #BFD4E9",
"I. c #CDD8E3",
"U. c #C0D5EA",
"Y. c #C1D5EA",
"T. c #C2D6EA",
"R. c #C4D7EB",
"E. c #C4D8EB",
"W. c #C5D9EB",
"Q. c #C6D9EB",
"!. c #C8D9EB",
"~. c #CADBED",
"^. c #CEDEEE",
"/. c #D0DFEF",
"(. c #D4E0EF",
"). c #D5E3F1",
"_. c #D8E4F1",
"`. c #DCE6F2",
"'. c #E3EBF4",
"]. c #E7EEF6",
"[. c #EAF1F8",
"{. c #EDF2F8",
"}. c #F3F6FB",
"|. c #F5F8FB",
" X c #FAFBFD",
".X c None",
/* pixels */
".X.X.X.X.X.X.X.X.X.X.X.X.X.X.X.X.X.X.X.X.X.X.X.X.X.X.X.X.X.X.X.X",
".X.X.X.X.X.X.X.X.X.X.X.X.X.X.X.X.X.X.X.X.X.X.X.X.X.X.X.X.X.X.X.X",
".X.X.X.X.X.X.X.X.X.X.X.X.X.X.X.X.X.X.X.X.X.X.X.X.X.X.X.X.X.X.X.X",
".X.X.X.X.X.X.X.X.X.X.X.X.X.X.X.X.X.X.X.X.X.X.X.X.X.X.X.X.X.X.X.X",
".X.X.X.X.X.X.X.X.X.X.X.X.X.X.X.X.X.X.X.X.X.X.X.X.X.X.X.X.X.X.X.X",
".X.X.X.X.X.X.X.X.X.X.X.X.X.X.X.X.X.X.X.X.X.X.X.X.X.X.X.X.X.X.X.X",
".X.X.X.X.X.X.X.X.X.X.X.X.X.X.X  ; .X.X.X.X.X.X.X.X.X.X.X.X.X.X.X",
".X.X.X.X.X.X.X.X.X.X.X.X.X.X.X  } 0   .X.X.X.X.X.X.X.X.X.X.X.X.X",
".X.X.X.X.X.X.X.X.X.X.X.X.X.X.X  4.O.r . .X.X.X.X.X.X.X.X.X.X.X.X",
".X.X.X.X.X.X.X.X.X.X.X.X.X.X.X  D.0...j   .X.X.X.X.X.X.X.X.X.X.X",
".X.X.X.X.X.X.X.X.X.X    4 d z j Y.C.9.[ D o .X.X.X.X.X.X.X.X.X.X",
".X.X.X.X.X.X.X.X.X% =.].'.`.).Q.J.C.c.5._ A = .X.X.X.X.X.X.X.X.X",
".X.X.X.X.X.X.X  g I.)./.^.~.Q.P.D.n.l.d.<./ T = .X.X.X.X.X.X.X.X",
".X.X.X.X.X.X.X2 U.R.Q.Q.Q.U.J.D.m.x.f.p.w.$.^ ! 8   .X.X.X.X.X.X",
".X.X.X.X.X.X  >.D.G.G.J.G.D.m.v.c.h.p.t.7.,.E J C o .X.X.X.X.X.X",
".X.X.X.X.X.Xe c.v.m.B.m.s.+.| ] ) 4.t.9.$.G b y X .X.X.X.X.X.X.X",
".X.X.X.X.X  Y h.j.j.u.( U I L H V | 9.' n c 5   .X.X.X.X.X.X.X.X",
".X.X.X.X.X  X.y.a.p.~ K r < : * a [ P b x >   .X.X.X.X.X.X.X.X.X",
".X.X.X.X.X  7.9.w.o.Z o .X.X.X  i N n p + .X.X.X.X.X.X.X.X.X.X.X",
".X.X.X.X.X  Q <.7.#.& .X.X.X.X  i M w X .X.X.X.X.X.X.X.X.X.X.X.X",
".X.X.X.X.X  F @.@.J.  .X.X.X.X  N 6   .X.X.X.X.X.X.X.X.X.X.X.X.X",
".X.X.X.X.X.Xq  .,.|.7 .X.X.X.X  ,   .X.X.X.X.X.X.X.X.X.X.X.X.X.X",
".X.X.X.X.X.X  R ` [.:.  .X.X.X.X.X.X.X.X.X.X.X.X.X.X.X.X.X.X.X.X",
".X.X.X.X.X.X.X& _ s. Xk   .X.X.X.X.X.X.X.X.X.X.X.X.X.X.X.X.X.X.X",
".X.X.X.X.X.X.X.X; ( U.|.h   .X.X.X.X.X.X.X.X.X.X.X.X.X.X.X.X.X.X",
".X.X.X.X.X.X.X.X.X@ S J.{.=.# .X.X.X.X.X.X.X.X.X.X.X.X.X.X.X.X.X",
".X.X.X.X.X.X.X.X.X.X  9 -.).g.4   .X.X.X.X.X.X.X.X.X.X.X.X.X.X.X",
".X.X.X.X.X.X.X.X.X.X.X.X  % d l 2 .X.X.X.X.X.X.X.X.X.X.X.X.X.X.X",
".X.X.X.X.X.X.X.X.X.X.X.X.X.X.X.X.X.X.X.X.X.X.X.X.X.X.X.X.X.X.X.X",
".X.X.X.X.X.X.X.X.X.X.X.X.X.X.X.X.X.X.X.X.X.X.X.X.X.X.X.X.X.X.X.X",
".X.X.X.X.X.X.X.X.X.X.X.X.X.X.X.X.X.X.X.X.X.X.X.X.X.X.X.X.X.X.X.X",
".X.X.X.X.X.X.X.X.X.X.X.X.X.X.X.X.X.X.X.X.X.X.X.X.X.X.X.X.X.X.X.X"
};
