/* XPM */
static char *settings_32x32[] = {
/* columns rows colors chars-per-pixel */
"32 32 199 2 ",
"   c black",
".  c #060606",
"X  c #0E0900",
"o  c #0F0900",
"O  c gray3",
"+  c #090909",
"@  c gray4",
"#  c #0B0B0B",
"$  c #0C0C0C",
"%  c gray6",
"&  c #1E1800",
"*  c #1F1A00",
"=  c #101010",
"-  c #131313",
";  c #161616",
":  c gray9",
">  c #191919",
",  c #1B1B1B",
"<  c gray11",
"1  c #1D1D1D",
"2  c #2F2900",
"3  c #3A2C00",
"4  c #3B2E00",
"5  c #202020",
"6  c #222222",
"7  c #232323",
"8  c gray15",
"9  c gray16",
"0  c #2A2A2A",
"q  c #2C2C2C",
"w  c #2F2F2F",
"e  c #323232",
"r  c gray20",
"t  c #343434",
"y  c #353535",
"u  c gray21",
"i  c gray22",
"p  c #393939",
"a  c #3A3A3A",
"s  c #3E3E3E",
"d  c #564300",
"f  c #594500",
"g  c #5A4600",
"h  c #5A4900",
"j  c #5C4D00",
"k  c #5C4E00",
"l  c #735400",
"z  c #7F5C00",
"x  c #464436",
"c  c #414141",
"v  c gray26",
"b  c #434343",
"n  c #464646",
"m  c #4B4B4B",
"M  c gray32",
"N  c gray35",
"B  c #5A5A5A",
"V  c gray36",
"C  c gray37",
"Z  c #626262",
"A  c gray40",
"S  c DimGray",
"D  c #6A6A6A",
"F  c #6C6C6C",
"G  c gray43",
"H  c #727272",
"J  c #767676",
"K  c gray47",
"L  c gray48",
"P  c #7B7B7B",
"I  c #7C7C7C",
"U  c #7E7E7E",
"Y  c gray50",
"T  c #805D00",
"R  c #906A00",
"E  c #916D00",
"W  c #9D7E00",
"Q  c #B47500",
"!  c #B07E00",
"~  c #9C8800",
"^  c #B98300",
"/  c #BF8B00",
"(  c #A59106",
")  c #BDA300",
"_  c #C28D00",
"`  c #C59200",
"'  c #C79500",
"]  c #C89700",
"[  c #CB9D00",
"{  c #CB9E00",
"}  c #CE9D00",
"|  c #CC9E00",
" . c #D09F00",
".. c #E49C00",
"X. c #CEA100",
"o. c #D1A000",
"O. c #D1A300",
"+. c #D3A300",
"@. c #D3A500",
"#. c #D2A700",
"$. c #D5A800",
"%. c #D4A900",
"&. c #D5AB00",
"*. c #D6AB00",
"=. c #D7AE00",
"-. c #D9AA00",
";. c #D9AB00",
":. c #DFA900",
">. c #D8AD00",
",. c #D9AE00",
"<. c #DAAF00",
"1. c #DEAE00",
"2. c #DAB100",
"3. c #DCB000",
"4. c #DDB000",
"5. c #DCB300",
"6. c #DCB400",
"7. c #DDB600",
"8. c #DFB800",
"9. c #EBAB00",
"0. c #E3B200",
"q. c #EDB400",
"w. c #EEB400",
"e. c #E9BB00",
"r. c #F1B600",
"t. c #F6BE00",
"y. c #D2BB23",
"u. c #F5C700",
"i. c #FDCE00",
"p. c #FED000",
"a. c #FFDB00",
"s. c #818181",
"d. c gray51",
"f. c #838383",
"g. c #8D8D8D",
"h. c #8E8E8E",
"j. c gray56",
"k. c #909090",
"l. c #959595",
"z. c gray59",
"x. c #979797",
"c. c #989898",
"v. c gray60",
"b. c gray61",
"n. c gray62",
"m. c #A4A4A4",
"M. c gray66",
"N. c #A9A9A9",
"B. c #AAAAAA",
"V. c #ACACAC",
"C. c gray68",
"Z. c #AEAEAE",
"A. c #AFAFAF",
"S. c gray69",
"D. c #B1B1B1",
"F. c #B2B2B2",
"G. c gray70",
"H. c gray71",
"J. c #B6B6B6",
"K. c gray72",
"L. c #B9B9B9",
"P. c gray73",
"I. c #BCBCBC",
"U. c gray",
"Y. c gray75",
"T. c #C0C0C0",
"R. c #C1C1C1",
"E. c gray76",
"W. c #C3C3C3",
"Q. c gray77",
"!. c #C5C5C5",
"~. c gray78",
"^. c gray79",
"/. c #CACACA",
"(. c #CDCDCD",
"). c #CECECE",
"_. c gray81",
"`. c #D0D0D0",
"'. c #D2D2D2",
"]. c LightGray",
"[. c #D5D5D5",
"{. c gray84",
"}. c #D7D7D7",
"|. c #D8D8D8",
" X c gray85",
".X c gray86",
"XX c gainsboro",
"oX c #DDDDDD",
"OX c gray88",
"+X c #E1E1E1",
"@X c #E2E2E2",
"#X c gray89",
"$X c #E4E4E4",
"%X c gray90",
"&X c #EAEAEA",
"*X c gray93",
"=X c #F3F3F3",
"-X c #F4F4F4",
";X c None",
/* pixels */
";X;X;X;X;X;X;X;X;X;X;X;X;X;X;X;X;X;X;X;X;X;X;X;X;X;X;X;X;X;X;X;X",
";X;X;X;X;X;X;X;X;X;X;X;X;X;X;X;X;X;X;X;X;X;X;X;X;X;X;X;X;X;X;X;X",
";X;X;X;X;X;X;X;X;X;X;X;X;X;X;X;X;X;X;X;X;X;X;X;X;X;X;X;X;X;X;X;X",
";X;X;X;X;X;X;X;X;X;X;X;X;X;X;X;X;X;X;X;X;X;X;X;X;X;X;X;X;X;X;X;X",
";X;X;X;X;X;X;X;X;X;X;X;X;X;X;X;X;X;X;X;X;X;X;X;X;X;X;X;X;X;X;X;X",
";X;X;X;X;X;X;X;X;X;X;X;X;X;X;X;X;X;X;X;X;X;X;X;X;X;X;X;X;X;X;X;X",
";X;X;X;X;X;X= z.1 ;X;X;X;X;X;X;X;X;X;X;X;X;X;X;X;X;X;X;X;X;X;X;X",
";X;X;X;X;X;Xz.*X$XH   ;X;X;X;X;X;X;X;X;X;X  r r ;X;X;X;X;X;X;X;X",
";X;X;X;X;X;X=  XOX Xz.  ;X;X;X;X;X;X;X  B T.B.A     a ;X;X;X;X;X",
";X;X;X;X;X;X;Xn  X_.F.9 ;X;X;X;X;X;X  f.[.F.J 9 $ k.J.# ;X;X;X;X",
";X;X;X;X;X;X;X  S P.P. Xq ;X;X;X;X;X8  X$X_.U A C. Xf.; ;X;X;X;X",
";X;X;X;X;X;X;X;X    L =X&Xq ;X;X;X;Xn $X$XOXOXOX`.k.B . ;X;X;X;X",
";X;X;X;X;X;X;X;X;X;X  C -X Xu   ;X8 T.F.F.oX!.m.U C = ;X;X;X;X;X",
";X;X;X;X;X;X;X;X;X;X;X  B OX[.m $ T.C.C.!.n.J C q   ;X;X;X;X;X;X",
";X;X;X;X;X;X;X;X;X;X;X;X  M `.T.v u u s L F #   ;X;X;X;X;X;X;X;X",
";X;X;X;X;X;X;X;X;X;X;X;X;X  r C.B.x ) W ; # ;X;X;X;X;X;X;X;X;X;X",
";X;X;X;X;X;X;X;X;X;X;X;X  s Z 5 g.y.i.! * * ;X;X;X;X;X;X;X;X;X;X",
";X;X;X;X;X;X;X;X;X;X;X  U F.z.1 ( i.t...w.e.g   ;X;X;X;X;X;X;X;X",
";X;X;X;X;X;X;X;X;X;X  f.T.J.C.  a.r.9.w.1.>.5.g   ;X;X;X;X;X;X;X",
";X;X;X;X;X;X;X;X  u k.T.P.!.C.v 2 3 u.0.| o.>.2.d   ;X;X;X;X;X;X",
";X;X;X;X;X;X  B Y._.`._.`.Y.b.u   2 5._ ' [ @.>.7.E   ;X;X;X;X;X",
";X;X;X;X;X  f.^.^.!.`.$X$XF.v   ;X  ~ X./  .[ &.>.7.R   ;X;X;X;X",
";X;X;X;X;X8 `.T.B.b.b.OX Xm.1 ;X;X;X  ~ &.` o.| &.1.7.T ;X;X;X;X",
";X;X;X;X;Xu P.B.5 8 C.`.m.U   ;X;X;X;X  k >.' o.[ &.:.T ;X;X;X;X",
";X;X;X;X;X# g.5 ; F.F.b.H # ;X;X;X;X;X;X  k >.] @.| ^ o ;X;X;X;X",
";X;X;X;X;X;X  ;X  H S a   ;X;X;X;X;X;X;X;X  h ;.@.Q o ;X;X;X;X;X",
";X;X;X;X;X;X;X;X;X    ;X;X;X;X;X;X;X;X;X;X;X  3 l o ;X;X;X;X;X;X",
";X;X;X;X;X;X;X;X;X;X;X;X;X;X;X;X;X;X;X;X;X;X;X;X;X;X;X;X;X;X;X;X",
";X;X;X;X;X;X;X;X;X;X;X;X;X;X;X;X;X;X;X;X;X;X;X;X;X;X;X;X;X;X;X;X",
";X;X;X;X;X;X;X;X;X;X;X;X;X;X;X;X;X;X;X;X;X;X;X;X;X;X;X;X;X;X;X;X",
";X;X;X;X;X;X;X;X;X;X;X;X;X;X;X;X;X;X;X;X;X;X;X;X;X;X;X;X;X;X;X;X",
";X;X;X;X;X;X;X;X;X;X;X;X;X;X;X;X;X;X;X;X;X;X;X;X;X;X;X;X;X;X;X;X"
};
