/* XPM */
static char *suspend_32x32[] = {
/* columns rows colors chars-per-pixel */
"32 32 2 1 ",
"  c gray20",
". c None",
/* pixels */
"................................",
"................................",
"................................",
"................................",
"................................",
"................................",
"................................",
"................................",
"................................",
"...........    ....    .........",
"...........    ....    .........",
"...........    ....    .........",
"...........    ....    .........",
"...........    ....    .........",
"...........    ....    .........",
"...........    ....    .........",
"...........    ....    .........",
"...........    ....    .........",
"...........    ....    .........",
"...........    ....    .........",
"...........    ....    .........",
"................................",
"................................",
"................................",
"................................",
"................................",
"................................",
"................................",
"................................",
"................................",
"................................",
"................................"
};
