/* XPM */
static char *suspend_16x16[] = {
/* columns rows colors chars-per-pixel */
"16 16 2 1 ",
"  c gray20",
". c None",
/* pixels */
"................",
"................",
"................",
"................",
"................",
"......  ..  ....",
"......  ..  ....",
"......  ..  ....",
"......  ..  ....",
"......  ..  ....",
"......  ..  ....",
"................",
"................",
"................",
"................",
"................"
};
