/* XPM */
static char *xterm_32x32[] = {
/* columns rows colors chars-per-pixel */
"32 32 181 2 ",
"   c black",
".  c gray6",
"X  c #282828",
"o  c gray16",
"O  c gray21",
"+  c #373737",
"@  c gray22",
"#  c #01295C",
"$  c #012A5D",
"%  c #012A5E",
"&  c #012B5F",
"*  c #012B60",
"=  c #012C61",
"-  c #012C62",
";  c #032E65",
":  c #042E66",
">  c #052F67",
",  c #0B3169",
"<  c #08316A",
"1  c #09316B",
"2  c #0D326B",
"3  c #0D336D",
"4  c #0E336D",
"5  c #0E346E",
"6  c #0F346F",
"7  c #183A64",
"8  c #183B67",
"9  c #10386A",
"0  c #10396A",
"q  c #10396B",
"w  c #103A6C",
"e  c #0F3570",
"r  c #0F3673",
"t  c #103571",
"y  c #113672",
"u  c #113673",
"i  c #123773",
"p  c #123774",
"a  c #133875",
"s  c #133876",
"d  c #143876",
"f  c #143976",
"g  c #143977",
"h  c #1B3E74",
"j  c #153978",
"k  c #153A79",
"l  c #163A79",
"z  c #153B7A",
"x  c #163B7A",
"c  c #163B7B",
"v  c #173B7B",
"b  c #163B7C",
"n  c #173C7C",
"m  c #183C7D",
"M  c #183D7E",
"N  c #193D7E",
"B  c #193D7F",
"V  c #1F4279",
"C  c #384F6C",
"Z  c #38506E",
"A  c #254373",
"S  c #30527C",
"D  c #464646",
"F  c #494949",
"G  c gray29",
"H  c #4C4C4C",
"J  c gray37",
"K  c #5F5F5F",
"L  c #425779",
"P  c #586575",
"I  c #586576",
"U  c #5B687A",
"Y  c #606060",
"T  c gray38",
"R  c gray40",
"E  c DimGray",
"W  c gray42",
"Q  c #6C6C6C",
"!  c gray43",
"~  c #606A76",
"^  c gray44",
"/  c gray45",
"(  c #787A7D",
")  c #787A7E",
"_  c #787B7E",
"`  c #7E7E7E",
"'  c #1A3E80",
"]  c #1B3F82",
"[  c #506C90",
"{  c #506D93",
"}  c #577197",
"|  c #547198",
" . c #5A749C",
".. c #607999",
"X. c #607A9B",
"o. c #607B9C",
"O. c #808080",
"+. c gray52",
"@. c #868686",
"#. c #888888",
"$. c gray54",
"%. c gray56",
"&. c #909090",
"*. c #959595",
"=. c gray59",
"-. c #989898",
";. c gray62",
":. c #9F9F9F",
">. c #8FA2BA",
",. c #95A6BF",
"<. c #A0A0A0",
"1. c #A2A2A2",
"2. c gray65",
"3. c gray66",
"4. c #A9A9A9",
"5. c #A8AAAE",
"6. c #B1B1B1",
"7. c #B2B2B2",
"8. c gray70",
"9. c gray71",
"0. c gray72",
"q. c #BBBBBB",
"w. c gray74",
"e. c gray",
"r. c gray75",
"t. c #96A6C0",
"y. c #9AAAC7",
"u. c #A8B6CE",
"i. c #BFC9D6",
"p. c #C0C0C0",
"a. c #C1C1C1",
"s. c gray76",
"d. c #C3C3C3",
"f. c gray77",
"g. c #C5C5C5",
"h. c #CACACA",
"j. c gray80",
"k. c gray81",
"l. c #C1CBD9",
"z. c #C2CBD9",
"x. c #C2CBDA",
"c. c #C2CCDA",
"v. c gray82",
"b. c #D2D2D2",
"n. c gray83",
"m. c gray84",
"M. c #D7D7D7",
"N. c gray85",
"B. c gray86",
"V. c gainsboro",
"C. c #DDDDDD",
"Z. c gray87",
"A. c #DFDFDF",
"S. c #CFD7E1",
"D. c #D1D8E3",
"F. c #D2D9E4",
"G. c #D4DAE7",
"H. c gray88",
"J. c #E1E1E1",
"K. c #E2E2E2",
"L. c gray89",
"P. c #E4E4E4",
"I. c gray90",
"U. c #E6E6E6",
"Y. c #E7E7E7",
"T. c #E0E5EB",
"R. c gray91",
"E. c #E9E9E9",
"W. c gray92",
"Q. c #ECECEC",
"!. c gray93",
"~. c #EFEFEF",
"^. c #EFF1F4",
"/. c gray94",
"(. c gray95",
"). c gray96",
"_. c #F6F6F6",
"`. c gray97",
"'. c #F9F9F9",
"]. c white",
"[. c None",
/* pixels */
"[.[.[.[.[.[.[.[.[.[.[.[.[.[.[.[.[.[.[.[.[.[.[.[.[.[.[.[.[.[.[.[.",
"[.[.[.[.[.[.[.[.[.[.[.[.[.[.[.[.[.[.[.[.[.[.[.[.[.[.[.[.[.[.[.[.",
"[.[.[.[.[.[.[.[.[.[.[.[.[.[.[.[.[.[.[.[.[.[.[.[.[.[.[.[.[.[.[.[.",
"[.[.[.[.[.[.[.[.[.[.[.[.[.[.[.[.[.[.[.[.[.[.[.[.[.[.[.[.[.[.[.[.",
"[.[.[.[.[.[.[.[.[.[.[.[.[.[.[.[.[.[.[.[.[.[.[.[.[.[.[.[.[.[.[.[.",
"[.[.[.[.[.[.[.[.[.[.[.[.[.[.[.[.[.[.[.[.[.[.      [.[.[.[.[.[.[.",
"[.[.[.[.[.[.[.[.[.[.[.[.[.[.[.[.[.[.    O J *.4.$.  [.[.[.[.[.[.",
"[.[.[.[.[.[.[.[.[.[.[.[.[.[.    O ! 1.K.U.N.v.p.q.  [.[.[.[.[.[.",
"[.[.[.[.[.[.[.[.[.[.  . D ` 2.K.U.V.v.p.0.f.e.h.N.  [.[.[.[.[.[.",
"[.[.[.[.[.[.  . H @.e.W./.K.v.p.0.p.p.8.<.@.( 5.K.  [.[.[.[.[.[.",
"[.[.[.[.[.[.F /.'.U.n.g.0.p.e.8.;.$.( U L A 3 l.U.  [.[.[.[.[.[.",
"[.[.[.[.[.[.^ U.9.e.e.8.;.$.( I Z 8 > a a y 6 c.K.  [.[.[.[.[.[.",
"[.[.[.[.[.[.^ A.p.%.~ P C 7 & & = : n c g y 6 c.U.  [.[.[.[.[.[.",
"[.[.[.[.[.[.! N.p.O.# ..S & & & = b B c g p 6 c.U.  [.[.[.[.[.[.",
"[.[.[.[.[.[.W N.p.O.& l.].S.9 = y ] B c a y 6 c.U.  [.[.[.[.[.[.",
"[.[.[.[.[.[.W n.p.O.& [ ^...9 { u.B v c a y 6 c.U.  [.[.[.[.[.[.",
"[.[.[.[.[.[.R n.d.` & ^.o.* ].F.y.n c c p y 3 l.Y.  [.[.[.[.[.[.",
"[.[.[.[.[.[.R n.p.` & & * = q z B c g p y 3 2 l.Y.  [.[.[.[.[.[.",
"[.[.[.[.[.[.R v.g.O.& & * = : c c g a y y 3 , l.W.  [.[.[.[.[.[.",
"[.[.[.[.[.[.R v.d.O.* * = = 1 a p p y e 3 h } T.Y.  [.[.[.[.[.[.",
"[.[.[.[.[.[.R n.d.O.& * = = 1 y y V  .,.D.].'./.U.  [.[.[.[.[.[.",
"[.[.[.[.[.[.R v.g.` * = * q | t.F.].).~.W.K.K.K.4.  [.[.[.[.[.[.",
"[.[.[.[.[.[.R v.g.` o.,.S.].).~.U.A.A.A.2.^ @     [.[.[.[.[.[.[.",
"[.[.[.[.[.[.R v.f.f.).W.K.A.N.v.-.Y O     [.[.[.[.[.[.[.[.[.[.[.",
"[.[.[.[.[.[.H v.g.N.N.j.*.Y o     [.[.[.[.[.[.[.[.[.[.[.[.[.[.[.",
"[.[.[.[.[.[.  &.@.J o     [.[.[.[.[.[.[.[.[.[.[.[.[.[.[.[.[.[.[.",
"[.[.[.[.[.[.[.    [.[.[.[.[.[.[.[.[.[.[.[.[.[.[.[.[.[.[.[.[.[.[.",
"[.[.[.[.[.[.[.[.[.[.[.[.[.[.[.[.[.[.[.[.[.[.[.[.[.[.[.[.[.[.[.[.",
"[.[.[.[.[.[.[.[.[.[.[.[.[.[.[.[.[.[.[.[.[.[.[.[.[.[.[.[.[.[.[.[.",
"[.[.[.[.[.[.[.[.[.[.[.[.[.[.[.[.[.[.[.[.[.[.[.[.[.[.[.[.[.[.[.[.",
"[.[.[.[.[.[.[.[.[.[.[.[.[.[.[.[.[.[.[.[.[.[.[.[.[.[.[.[.[.[.[.[.",
"[.[.[.[.[.[.[.[.[.[.[.[.[.[.[.[.[.[.[.[.[.[.[.[.[.[.[.[.[.[.[.[."
};
