/* XPM */
static char *app_32x32[] = {
/* columns rows colors chars-per-pixel */
"32 32 234 2 ",
"   c black",
".  c gray1",
"X  c #040404",
"o  c #03050A",
"O  c #05070C",
"+  c #070A0F",
"@  c #090909",
"#  c #080A0F",
"$  c #0C0C0C",
"%  c gray5",
"&  c gray6",
"*  c #0A0C10",
"=  c #0E0F11",
"-  c #090D15",
";  c #0A101D",
":  c #101010",
">  c gray7",
",  c #131519",
"<  c #1B1B1B",
"1  c #191B1F",
"2  c #1D1D1D",
"3  c #1D1E1F",
"4  c #1E1E1E",
"5  c gray12",
"6  c #161D29",
"7  c #171E2B",
"8  c #181F2B",
"9  c #1C263C",
"0  c #222222",
"q  c #21252F",
"w  c #23272F",
"e  c #272A2F",
"r  c #2C2C2C",
"t  c #2C2D2F",
"y  c #252B39",
"u  c gray19",
"i  c #313131",
"p  c #323232",
"a  c gray20",
"s  c gray21",
"d  c #373737",
"f  c #35383F",
"g  c gray23",
"h  c #3C3C3C",
"j  c #212B41",
"k  c #23304A",
"l  c #2C3F65",
"z  c #3E4149",
"x  c #39517F",
"c  c #464646",
"v  c #42464F",
"b  c #4A4B4F",
"n  c #464E5F",
"m  c #505050",
"M  c #515151",
"N  c gray32",
"B  c #535353",
"V  c #565656",
"C  c gray35",
"Z  c #5A5A5A",
"A  c #5D5D5D",
"S  c gray37",
"D  c #45526C",
"F  c #4C5871",
"G  c #48597B",
"H  c #49597B",
"J  c #58657F",
"K  c #626262",
"L  c gray39",
"P  c #646464",
"I  c #656565",
"U  c #6A6A6A",
"Y  c #6F6F6F",
"T  c #636C7F",
"R  c #727272",
"E  c #777777",
"W  c gray47",
"Q  c #797979",
"!  c gray48",
"~  c gray49",
"^  c #7E7E7E",
"/  c gray50",
"(  c #36548F",
")  c #3B5894",
"_  c #465C89",
"`  c #4D69A0",
"'  c #5874AB",
"]  c #5975AF",
"[  c #5B7CBF",
"{  c #667FB1",
"}  c #5A7CC0",
"|  c #5C7DC1",
" . c #7A818F",
".. c #72809C",
"X. c #7B859A",
"o. c #7B869F",
"O. c #6385C9",
"+. c #6486CA",
"@. c #6E8ECE",
"#. c #7390C9",
"$. c #7795CF",
"%. c #6C8ED2",
"&. c #6F91D5",
"*. c #7193D7",
"=. c #7394D6",
"-. c #7A96D0",
";. c #7996D2",
":. c #7294D8",
">. c #7697DA",
",. c #7698DC",
"<. c #7B9CDF",
"1. c #7C9DDD",
"2. c #7EA0E4",
"3. c #808080",
"4. c #818181",
"5. c gray51",
"6. c #848484",
"7. c #868686",
"8. c #85888F",
"9. c gray54",
"0. c #8B8B8B",
"q. c #939393",
"w. c #979797",
"e. c #989898",
"r. c #9A9A9A",
"t. c #9B9B9B",
"y. c #9F9F9F",
"u. c #8A91A1",
"i. c #959BA8",
"p. c #8694B0",
"a. c #8899BE",
"s. c #A2A2A2",
"d. c #A5A5A5",
"f. c gray65",
"g. c #A7A7A7",
"h. c #A2A6AF",
"j. c #A9A9A9",
"k. c #AFAFAF",
"l. c gray69",
"z. c #B1B1B1",
"x. c gray70",
"c. c #B4B4B4",
"v. c gray71",
"b. c #B1B5BF",
"n. c gray72",
"m. c #B9B9B9",
"M. c gray73",
"N. c gray",
"B. c gray75",
"V. c #97A7C8",
"C. c #96A8CE",
"Z. c #87A0D3",
"A. c #8BA6DD",
"S. c #90A6D3",
"D. c #91A8D7",
"F. c #81A3E7",
"G. c #86A8EC",
"H. c #88AAEE",
"J. c #8FAFEF",
"K. c #92ACE0",
"L. c #8EB0F4",
"P. c #95B3F1",
"I. c #90B2F6",
"U. c #91B3F7",
"Y. c #97B7FA",
"T. c #98B9FB",
"R. c #A6BBE6",
"E. c #A0BFFE",
"W. c #A1BFFE",
"Q. c #BACBEF",
"!. c #A9C0F1",
"~. c #A2C0FE",
"^. c #A5C2FE",
"/. c #A7C3FF",
"(. c #ABC6FF",
"). c #AFC9FF",
"_. c #B0CAFF",
"`. c #B6CEFF",
"'. c #B7CEFF",
"]. c #B8CCF8",
"[. c #B8CEFB",
"{. c #BDD0F8",
"}. c #BED1F9",
"|. c #BBD1FF",
" X c #C0C0C0",
".X c #C1C1C1",
"XX c #C3C3C3",
"oX c gray77",
"OX c #C5C5C5",
"+X c gray78",
"@X c #C8C8C8",
"#X c #CECECE",
"$X c gray81",
"%X c #CFD3DF",
"&X c #D0D0D0",
"*X c #D2D2D2",
"=X c LightGray",
"-X c gray83",
";X c gray84",
":X c #D8D8D8",
">X c gray85",
",X c #DADADA",
"<X c #DDDDDD",
"1X c #DFDFDF",
"2X c #C8D3EA",
"3X c #CBD6EF",
"4X c #D3DBEF",
"5X c #C3D6FF",
"6X c #C4D6FF",
"7X c #C5D7FF",
"8X c #CDDDFF",
"9X c #CFDEFF",
"0X c #DEE2EF",
"qX c #D4E1FF",
"wX c #D5E2FF",
"eX c #D7E3FF",
"rX c #DCE4F8",
"tX c #D8E4FF",
"yX c #DDE7FF",
"uX c gray91",
"iX c #E9E9E9",
"pX c #EAEAEA",
"aX c gray93",
"sX c #E1E7F8",
"dX c #E3EBFF",
"fX c #E4ECFD",
"gX c #E4ECFF",
"hX c #E5ECFF",
"jX c #EAF0FF",
"kX c #EBF1FF",
"lX c #EDF2FF",
"zX c #F1F1F1",
"xX c gray95",
"cX c None",
/* pixels */
"cXcXcXcXcXcXcXcXcXcXcXcXcXcXcXcXcXcXcXcXcXcXcXcXcXcXcXcXcXcXcXcX",
"cXcXcXcXcXcXcXcXcXcXcXcXcXcXcXcXcXcXcXcXcXcXcXcXcXcXcXcXcXcXcXcX",
"cXcXcXcXcXcXcXcXcXcXcXcXcXcXcXcXcXcXcXcXcXcXcXcXcXcXcXcXcXcXcXcX",
"cXcXcXcXcXcXcXcXcXcXcXcXcXcXcXcXcXcXcXcXcXcXcXcXcXcXcXcXcXcXcXcX",
"cXcXcXcXcXcXcXcXcXcXcXcXcXcXcXcXcXcXcXcXcXcXcXcXcXcXcXcXcXcXcXcX",
"cXcXcXcXcXcXcXcXcXcXcXcXcXcXcXcXcXcX5 P > $   cXcXcXcXcXcXcXcXcX",
"cXcXcXcXcXcXcXcXcXcXcXcXcXcXcXcX    / E P q.M   cXcXcXcXcXcXcXcX",
"cXcXcXcXcXcXcXcXcXcXcXcXcXcXcX$ f.M 6.t.s.w.f.i cXcXcXcXcXcXcXcX",
"cXcXcXcXcXcXcXcXcXcXcXcXcXcXcXg / t.f.n..XoXc.V $ cXcXcXcXcXcXcX",
"cXcXcXcXcXcXcXcXcXcXcXcXcXcXcX  / c.oXZ W >X>X*Xi cXcXcXcXcXcXcX",
"cXcXcXcXcXcXcXcXcXcXcXcXcXcX5 n.t.oXE   3.1XuXt.5 cXcXcXcXcXcXcX",
"cXcXcXcXcXcXcXcXcXcXcXcXcXcXr w.B.-Xq.K k.xX*XX cXcXcXcXcXcXcXcX",
"cXcXcXcXcXcXcXcXcXcX, n D + O : 3.1XuX>XxXxXxXZ cXcXcXcXcXcXcXcX",
"cXcXcXcXcXcXcXcXcXcXp.=.| x { ` - W aXxX*XM M   cXcXcXcXcXcXcXcX",
"cXcXcXcXcXcXcX= v * V.} &.O.A.*.@.7 c *XU r M 5 d cXcXcXcXcXcXcX",
"cXcXcXcXcXcX  C.K.] ,.:.H.L.I.I.J.8 X r 5 / 0.0.6.A cXcXcXcXcXcX",
"cXcXcXcXcXcXk %.+.2.G.Y.~./.(.(.-.) ; A ^ 0.k.n.n.Y X cXcXcXcXcX",
"cXcXcXcXcXcX  l F.I.W.)...a.5X5X].!.J i j.N./ l.;XoXP cXcXcXcXcX",
"cXcXcXcXcX  f #.%.^.`.w   G ].tXwX9XT d .X5.@ t.uX@XB cXcXcXcXcX",
"cXcXcXcXcXF R.<.P.`.o.  + -.}.dX4X .e 3.#Xs.R #XxXW cXcXcXcXcXcX",
"cXcXcXcXcXH ,.T._.7XX.9 ' Z.dXkXi.  & E ,XpXxXxXxXc.cXcXcXcXcXcX",
"cXcXcXcXcXw ;.W.|.9XyXS.S.sXkXlXsXz   ! 1X#XxXw.h : cXcXcXcXcXcX",
"cXcXcXcXcXcX8 ( Z.wXgXkXlXlXlXlX0X6 cXcXM 0 f.h cXcXcXcXcXcXcXcX",
"cXcXcXcXcXcXy [ [.tXhXkXlX2Xr 8.r cXcXcXcXcXcXcXcXcXcXcXcXcXcXcX",
"cXcXcXcXcXcX  y Q.3X_ 3XlXb.  cXcXcXcXcXcXcXcXcXcXcXcXcXcXcXcXcX",
"cXcXcXcXcXcXcXcX6 e X u.h.b cXcXcXcXcXcXcXcXcXcXcXcXcXcXcXcXcXcX",
"cXcXcXcXcXcXcXcXcXcXcX  cXcXcXcXcXcXcXcXcXcXcXcXcXcXcXcXcXcXcXcX",
"cXcXcXcXcXcXcXcXcXcXcXcXcXcXcXcXcXcXcXcXcXcXcXcXcXcXcXcXcXcXcXcX",
"cXcXcXcXcXcXcXcXcXcXcXcXcXcXcXcXcXcXcXcXcXcXcXcXcXcXcXcXcXcXcXcX",
"cXcXcXcXcXcXcXcXcXcXcXcXcXcXcXcXcXcXcXcXcXcXcXcXcXcXcXcXcXcXcXcX",
"cXcXcXcXcXcXcXcXcXcXcXcXcXcXcXcXcXcXcXcXcXcXcXcXcXcXcXcXcXcXcXcX",
"cXcXcXcXcXcXcXcXcXcXcXcXcXcXcXcXcXcXcXcXcXcXcXcXcXcXcXcXcXcXcXcX"
};
