/* XPM */
static char *folder_16x16[] = {
/* columns rows colors chars-per-pixel */
"16 16 105 2 ",
"   c black",
".  c #0C0905",
"X  c #0F0D09",
"o  c #100E09",
"O  c #100E0A",
"+  c #1B1710",
"@  c #1E1A13",
"#  c #221B10",
"$  c #2E271C",
"%  c #31281A",
"&  c #2D2921",
"*  c #3D3525",
"=  c #3F3F3D",
"-  c #3F3F3E",
";  c #41341E",
":  c #53432A",
">  c #5C4F39",
",  c #725C38",
"<  c #4F4D49",
"1  c #6B5D47",
"2  c #705E44",
"3  c #666052",
"4  c #6F6F6E",
"5  c gray50",
"6  c #876E48",
"7  c #98835E",
"8  c #A6874D",
"9  c #B18F5A",
"0  c #B69652",
"q  c #BC9D5D",
"w  c #AB8E61",
"e  c #AA936D",
"r  c #BD9C68",
"t  c #B49F7A",
"y  c #C39F67",
"u  c #C6A26B",
"i  c #C9A86A",
"p  c #CAAB6A",
"a  c #CCA871",
"s  c #CAAD73",
"d  c #CFAB74",
"f  c #D1AD76",
"g  c #D3AF79",
"h  c #CAB07D",
"j  c #CBB07F",
"k  c #D2B173",
"l  c #D5B17B",
"z  c #D7B37D",
"x  c #D9B57F",
"c  c #DCBB7F",
"v  c #8F8E8A",
"b  c #BAA884",
"n  c #BBB29F",
"m  c #BFBDB5",
"M  c #D4B683",
"N  c #DAB680",
"B  c #DCB882",
"V  c #DDB983",
"C  c #D9B885",
"Z  c #DEBA84",
"A  c #DFBB85",
"S  c #DFBB86",
"D  c #D3B98C",
"F  c #C6B490",
"G  c #E0BC87",
"H  c #E1BD88",
"J  c #E1BE88",
"K  c #E2BE89",
"L  c #E3BF8A",
"P  c #D6C39A",
"I  c #DEC498",
"U  c #E4C08A",
"Y  c #E5C18B",
"T  c #E6C28C",
"R  c #E7C58C",
"E  c #E7C48D",
"W  c #E9C68E",
"Q  c #E5C696",
"!  c #EAC790",
"~  c #ECC991",
"^  c #EECB92",
"/  c #EECC93",
"(  c #EFCD93",
")  c #EDCC97",
"_  c #F1CE95",
"`  c #F3D197",
"'  c #F6D499",
"]  c #F4D49D",
"[  c #F9D79B",
"{  c #FAD99B",
"}  c #FBDA9D",
"|  c #DECEAD",
" . c #DBCCB3",
".. c #EACFA5",
"X. c #F0D2A0",
"o. c #F3D5A1",
"O. c #E3D4B3",
"+. c #E5D6BA",
"@. c #ECDBBE",
"#. c #F4DCB2",
"$. c #F3DFBC",
"%. c #F1DFBE",
"&. c #EFDEC0",
"*. c #F9E5C1",
"=. c None",
/* pixels */
"=.=.=.=.=.=.=.=.=.=.=.=.=.=.=.=.",
"=.=.=.=.=.=.=.=.=.=.=.=.=.=.=.=.",
"=.=.=.=.=.=.=.=.=.=.=.=.=.=.=.=.",
"=.=.  o * o =.=.  @ $   =.=.=.=.",
"=.< h { } h > 7 M _ / X       =.",
"=.5 [ ' ` _ ~ ~ R B p 3 v n & =.",
"=.4 X.~ W c k s P O.%.#.) C O =.",
"=.- ..p q | &.*.o.~ W T L 2 =.=.",
"=.- I 0 +.] ( W T U G G G + =.=.",
"=.- D 8 $.W L L A A c l w   =.=.",
"=.  F t Q G A B N l a y : =.=.=.",
"=.  b  .A N l f u 9 , * . =.=.=.",
"=.- e @.f r 6 : #     =.=.=.=.=.",
"=.  m 1 %     =.=.=.=.=.=.=.=.=.",
"=.=.  =.=.=.=.=.=.=.=.=.=.=.=.=.",
"=.=.=.=.=.=.=.=.=.=.=.=.=.=.=.=."
};
