/* XPM */
static char *logout_16x16[] = {
/* columns rows colors chars-per-pixel */
"16 16 103 2 ",
"   c black",
".  c #000001",
"X  c #060400",
"o  c #040406",
"O  c #040407",
"+  c #0D0901",
"@  c #0F0B03",
"#  c #06060A",
"$  c #09090F",
"%  c #140E01",
"&  c #171004",
"*  c #1B1202",
"=  c #1C1303",
"-  c #1D1404",
";  c #1C1609",
":  c #0D0E17",
">  c #0E0F17",
",  c #111111",
"<  c gray7",
"1  c #1B1915",
"2  c #1C1A15",
"3  c #12131F",
"4  c #211B0E",
"5  c #241E11",
"6  c #372B12",
"7  c #131420",
"8  c #151623",
"9  c #171928",
"0  c #1C1E30",
"q  c #222222",
"w  c #2F2F2F",
"e  c #23263D",
"r  c #312F3A",
"t  c #3D3737",
"y  c #563B0A",
"u  c #4E3B19",
"i  c #473C2A",
"p  c #5E4412",
"a  c #61450F",
"s  c #6F4C0A",
"d  c #654B1A",
"f  c #6A511F",
"g  c #7A5715",
"h  c #7E5B19",
"j  c #6D5422",
"k  c #6E582A",
"l  c #2B2E49",
"z  c #2B2E4A",
"x  c #323656",
"c  c #363A5C",
"v  c #3F446C",
"b  c #5F5F5F",
"n  c #434873",
"m  c #6F6F6F",
"M  c #895717",
"N  c #A4620B",
"B  c #B16F14",
"V  c #876523",
"C  c #826224",
"Z  c #8B6927",
"A  c #9B6928",
"S  c #91702E",
"D  c #967532",
"F  c #967533",
"G  c #947637",
"H  c #997836",
"J  c #9A7936",
"K  c #9E7E3B",
"L  c #9C7E3F",
"P  c #A46B26",
"I  c #A2823F",
"U  c #9B824B",
"Y  c #A38340",
"T  c #A78744",
"R  c #AB8647",
"E  c #AC8C49",
"W  c #B08D4D",
"Q  c #B1924E",
"!  c #B2934F",
"~  c #B59753",
"^  c #B69753",
"/  c #B19555",
"(  c #B69854",
")  c #B99957",
"_  c #BA9A57",
"`  c #BB9B59",
"'  c #BC9E5A",
"]  c #BD9F5B",
"[  c #BFA15D",
"{  c #B08F6F",
"}  c #C0A25E",
"|  c #C1A35F",
" . c gray56",
".. c #9F9F9F",
"X. c #AFAFAF",
"o. c gray75",
"O. c #D1B087",
"+. c #EECD9A",
"@. c gray81",
"#. c #F6E4C9",
"$. c #EFEFEF",
"%. c white",
"&. c None",
/* pixels */
"&.&.&.&.&.&.&.&.&.&.&.&.&.&.&.&.",
"&.&.&.&.&.&.&.&.&.&.&.&.&.&.&.&.",
"&.&.&.&.                        ",
"&.&.&.&.% y p d f j j f d       ",
"&.&.    - h Z F K Y I K F       ",
"&., o.m @ C J T Q ( ( Q T       ",
"  ..%.%...; L ~ [ ` R ) ^       ",
"&., @.%.%.X.1 U | { #.P `       ",
"&.&., ..%.%.@.1 W O.+.B W o #   ",
"&.&.q @.%.%...5 | A N M | $ :   ",
"&.w $.%.%.m 4 / | | | | ' : 8   ",
"   .%.%.b 6 Y Q ' | [ ' ! 7 0   ",
"&.   .w & V F I E Q Q E I 9 e   ",
"&.&.&.  * g V S F F k i r c l   ",
"&.&.&.&.* s a u t z n n n n x   ",
"&.&.&.&.X @ O 3 3 3 3 3 3 3 :   "
};
