/* XPM */
static char *desktop[] = {
/* columns rows colors chars-per-pixel */
"24 24 180 2 ",
"   c black",
".  c #070500",
"X  c #060606",
"o  c #0B0803",
"O  c #0D0901",
"+  c #0B0B0B",
"@  c gray5",
"#  c #0E0E0E",
"$  c gray6",
"%  c #16130F",
"&  c #1F1909",
"*  c #101010",
"=  c #131313",
"-  c gray8",
";  c #1B1A16",
":  c #1B1A17",
">  c #1B1A18",
",  c #1C1B18",
"<  c #1D1D1D",
"1  c gray12",
"2  c #231E12",
"3  c #3E3219",
"4  c #222222",
"5  c #292824",
"6  c gray17",
"7  c #2D2D2D",
"8  c gray18",
"9  c gray19",
"0  c #3A3A3A",
"q  c #3E3E3E",
"w  c #5A3C08",
"e  c #4A3917",
"r  c #4D401F",
"t  c #5F4D1F",
"y  c #6F4B0A",
"u  c #6F581F",
"i  c #795614",
"p  c #7E5B19",
"a  c #735A2B",
"s  c #6E5A30",
"d  c #62573B",
"f  c #357F59",
"g  c #444444",
"h  c gray27",
"j  c #494949",
"k  c #4C4C4C",
"l  c #4E4E4E",
"z  c #5A5957",
"x  c gray37",
"c  c #6B6350",
"v  c #7E7252",
"b  c gray38",
"n  c #646464",
"m  c #656565",
"M  c gray40",
"N  c #6F6B61",
"B  c gray45",
"V  c #747474",
"C  c #777777",
"Z  c #7C7C7C",
"A  c #92712F",
"S  c #9C7D2E",
"D  c #8B6D34",
"F  c #86713A",
"G  c #987F3F",
"H  c #847142",
"J  c #897541",
"K  c #8F7B47",
"L  c #977E47",
"P  c #28802A",
"I  c #2E8530",
"U  c #368D39",
"Y  c #329234",
"T  c #3C923F",
"R  c #328268",
"E  c #499D4D",
"W  c #4DA650",
"Q  c #56AB55",
"!  c #52A25F",
"~  c #57B05A",
"^  c #5E8B60",
"/  c #659166",
"(  c #619C64",
")  c #729373",
"_  c #7C987D",
"`  c #7C997D",
"'  c #54A36C",
"]  c #5DB07A",
"[  c #61C163",
"{  c #9E8238",
"}  c #A78632",
"|  c #A78633",
" . c #A78733",
".. c #AB8B3A",
"X. c #AC8C3C",
"o. c #958048",
"O. c #9E8348",
"+. c #9F8D5E",
"@. c #A78744",
"#. c #AF9144",
"$. c #B09245",
"%. c #B4984F",
"&. c #A48E55",
"*. c #A58C5B",
"=. c #BB9D59",
"-. c #9C8F6E",
";. c #A5956D",
":. c #B2A277",
">. c #BDA97D",
",. c #C0A86C",
"<. c #C8B37E",
"1. c #0B3D9E",
"2. c #11438D",
"3. c #2B6C93",
"4. c #1554BD",
"5. c #1E65A1",
"6. c #2A62A9",
"7. c #446DB9",
"8. c #667EB4",
"9. c #0545D4",
"0. c #0646D5",
"q. c #165AD3",
"w. c #255CCC",
"e. c #1862E0",
"r. c #1C67E2",
"t. c #2372E7",
"y. c #2676E8",
"u. c #2C7FEC",
"i. c #426CC1",
"p. c #7F9E80",
"a. c #6ABC87",
"s. c #5A80BD",
"d. c #6880B5",
"f. c #3888EA",
"g. c #438FCA",
"h. c #5E86C0",
"j. c #808080",
"k. c gray53",
"l. c gray54",
"z. c #9A9A9A",
"x. c #9F9F9F",
"c. c #94A894",
"v. c #98A998",
"b. c #99AB9A",
"n. c #9DAE9E",
"m. c #B6AB90",
"M. c #959AA2",
"N. c #879CB7",
"B. c #A5A5A5",
"V. c #A0AFA1",
"C. c #AAAAAA",
"Z. c #AFAFAF",
"A. c #A1B0A2",
"S. c #A7B3A8",
"D. c #ABB1AB",
"F. c #B1B1B1",
"G. c gray70",
"H. c gray71",
"J. c #B6B6B6",
"K. c #B7B7B7",
"L. c gray72",
"P. c gray73",
"I. c #C7B892",
"U. c #D0BE90",
"Y. c #82D788",
"T. c #81CF93",
"R. c #D4C49A",
"E. c #C9C0A9",
"W. c #D9CAA6",
"Q. c #DDD0AF",
"!. c #C0C0C0",
"~. c #C6C6C6",
"^. c #CBCBCB",
"/. c #CDCDCD",
"(. c #D5D5D5",
"). c #DFDFDF",
"_. c #E7E7E7",
"`. c #ECECEC",
"'. c white",
"]. c None",
/* pixels */
"].].].].].].].].].].].].].].].].].].].].].].].].",
"].].].].].].].].].].].].].].].].].].].].].].].].",
"].].].].].].].].].].].].].].].].].].].].].].].].",
"].].].].].].].].].].].].].].].].    ].].].].].].",
"].].].].].].].].].].].].].].].@ v.K + ].].].].].",
"].].].].].].].].].].].< 0 M V B.A.A.8.  ].].].].",
"].].].].].].].].].].  k.N.h.s.7.6.T.n.Z   ].].].",
"].].].].].].].< j V M F.f.t.e.4.2.1.a.b.Z   ].].",
"].].].].].].].* Z.M.7.w.y.u.q.3.' f W [ c.Z   ].",
"].].].].].].].  @ F.d.9.0.r.g.' E T P Y Q Z.l ].",
"].].].  O 3 s O.L = G.8.5.R ] Y.( / ^ ` D.Z   ].",
"].].e O.=.@.A p y a , J.l.U P ~ S.l.x q q   ].].",
"].].u i y D &.:.R.R.;.; P.` ) c.F.    ].].].].].",
"].].  y E.Q.W.R.-.:.<.&.; l q q 1 t & ].].].].].",
"].].].. z m.c ; b 5 d >.&.F F $.X.| S & ].].].].",
"].].].].X - B (.^.G.n 2 o.%.$.X.| | { H   ].].].",
"].].].* B (./.J.G.G.L.z.7 r o.L v c x h   ].].].",
"].].].* V ^.G.G.G.G.F.J.!.V * h 7 =     ].].].].",
"].].].].  7 C.K.J.F.F.~._._.7   ].].].].].].].].",
"].].].].].].  n P.~.`.'.'.j.+ ].].].].].].].].].",
"].].].].].].].].4 D.'.x.1   ].].].].].].].].].].",
"].].].].].].].].].      ].].].].].].].].].].].].",
"].].].].].].].].].].].].].].].].].].].].].].].].",
"].].].].].].].].].].].].].].].].].].].].].].].]."
};
