/* XPM */
static char * workspacebuttonactive_xpm[] = {
"1 30 26 1",
" 	c #46264B",
".	c #46264C",
"+	c #47264D",
"@	c #48274E",
"#	c #49274F",
"$	c #4A2850",
"%	c #4B2950",
"&	c #4C2951",
"*	c #4D2952",
"=	c #4D2953",
"-	c #4D2A53",
";	c #4E2A54",
">	c #4F2A55",
",	c #502A56",
"'	c #502A57",
")	c #522A58",
"!	c #542B5A",
"~	c #552A5B",
"{	c #552A5C",
"]	c #562A5D",
"^	c #572A5E",
"/	c #582A5F",
"(	c #592A61",
"_	c #5A2A63",
":	c #572960",
"<	c #54285C",
" ",
".",
".",
"+",
"@",
"@",
"#",
"$",
"$",
"%",
"&",
"*",
"=",
"-",
";",
">",
",",
"'",
"'",
")",
"!",
"~",
"{",
"]",
"^",
"/",
"(",
"_",
":",
"<"};
