/* XPM */
static char *restart_32x32[] = {
/* columns rows colors chars-per-pixel */
"32 32 172 2 ",
"   c black",
".  c #020A02",
"X  c #020B02",
"o  c #000D00",
"O  c #010E01",
"+  c #040E04",
"@  c #050E05",
"#  c #021602",
"$  c #001900",
"%  c #0F190F",
"&  c #0E1B0E",
"*  c gray7",
"=  c #111E11",
"-  c #1B1B1B",
";  c gray11",
":  c #1D1D1D",
">  c #0D260D",
",  c #003300",
"<  c #083509",
"1  c #222222",
"2  c #2A2A2A",
"3  c gray17",
"4  c #2C2C2C",
"5  c gray21",
"6  c #3F3F3F",
"7  c #064506",
"8  c #004C00",
"9  c #005900",
"0  c #0F5D0F",
"q  c #154B16",
"w  c #017301",
"e  c #0E7A0E",
"r  c #136A14",
"t  c #1C6D1C",
"y  c #1F5820",
"u  c #334D33",
"i  c #246224",
"p  c #247D25",
"a  c #3A7F3B",
"s  c #494949",
"d  c gray29",
"f  c #555555",
"g  c gray34",
"h  c #585858",
"j  c #5A5A5A",
"k  c #5F5F5F",
"l  c gray40",
"z  c gray42",
"x  c #6C6C6C",
"c  c #747474",
"v  c gray47",
"b  c #008000",
"n  c #038903",
"m  c #008C00",
"M  c #009900",
"N  c #128612",
"B  c #02A303",
"V  c #00B300",
"C  c #00BF00",
"Z  c #11B711",
"A  c #39923B",
"S  c #3DBB3E",
"D  c #00C000",
"F  c #00CC00",
"G  c #00CD00",
"H  c #02CD02",
"J  c #03CD03",
"K  c #0ED00E",
"L  c #16D216",
"P  c #1ED31E",
"I  c #2ECB2E",
"U  c #23D523",
"Y  c #24D624",
"T  c #26D626",
"R  c #28D328",
"E  c #31D931",
"W  c #3DDC3D",
"Q  c #439D46",
"!  c #4AA94B",
"~  c #51A151",
"^  c #45DE45",
"/  c #56D556",
"(  c #56DB57",
")  c #4DE04D",
"_  c #4EE04E",
"`  c #54E054",
"'  c #58E358",
"]  c #5BE35B",
"[  c #5CE35C",
"{  c #60DC60",
"}  c #7DDC7D",
"|  c #61E561",
" . c #72E972",
".. c gray52",
"X. c #888888",
"o. c gray57",
"O. c #929292",
"+. c #939393",
"@. c #959595",
"#. c #989898",
"$. c #9A9A9A",
"%. c gray61",
"&. c gray62",
"*. c #9F9F9F",
"=. c #84AD86",
"-. c #86B488",
";. c #A0A0A0",
":. c #A2A2A2",
">. c #A5A5A5",
",. c gray66",
"<. c #A9A9A9",
"1. c gray69",
"2. c #B2B2B2",
"3. c gray70",
"4. c #B4B4B4",
"5. c #B6B6B6",
"6. c #B6BCB7",
"7. c #BBBBBB",
"8. c gray74",
"9. c gray",
"0. c gray75",
"q. c #90CA90",
"w. c #81ED81",
"e. c #88EF88",
"r. c #8AEF8A",
"t. c #8FF08F",
"y. c #99F299",
"u. c #BEC4BF",
"i. c #BBCCBB",
"p. c #A1F5A1",
"a. c #A4F3A4",
"s. c gray76",
"d. c #C3C3C3",
"f. c gray77",
"g. c gray78",
"h. c #C8C8C8",
"j. c #CBCBCB",
"k. c gray80",
"l. c #CECECE",
"z. c gray81",
"x. c #CADBCA",
"c. c #D2D2D2",
"v. c #D5D5D5",
"b. c gray84",
"n. c gray85",
"m. c #DADADA",
"M. c gray86",
"N. c #DFDFDF",
"B. c #E2E2E2",
"V. c gray89",
"C. c #E0E6E0",
"Z. c #E7E7E7",
"A. c #E9E9E9",
"S. c #EAEAEA",
"D. c gray92",
"F. c #ECECEC",
"G. c gray93",
"H. c #EEEEEE",
"J. c #EFEFEF",
"K. c gray94",
"L. c #F1F1F1",
"P. c gray95",
"I. c #F3F3F3",
"U. c #F4F4F4",
"Y. c gray96",
"T. c #F6F6F6",
"R. c gray97",
"E. c #F8F8F8",
"W. c gray98",
"Q. c #FBFBFB",
"!. c gray99",
"~. c None",
/* pixels */
"~.~.~.~.~.~.~.~.~.~.~.~.~.~.~.~.~.~.~.~.~.~.~.~.~.~.~.~.~.~.~.~.",
"~.~.~.~.~.~.~.~.~.~.~.~.~.~.~.~.~.~.~.~.~.~.~.~.~.~.~.~.~.~.~.~.",
"~.~.~.~.~.~.~.~.~.~.~.~.~.~.~.~.~.~.~.~.~.~.~.~.~.~.~.~.~.~.~.~.",
"~.~.~.~.~.~.~.~.~.~.~.~.~.~.~.~.~.~.~.~.~.~.~.~.~.~.~.~.~.~.~.~.",
"~.~.~.~.~.~.~.~.~.~.~.~.~.~.~.~.~.~.~.~.~.~.~.~.~.~.~.~.~.~.~.~.",
"~.~.~.~.~.~.~.~.~.~.~.~.~.~.~.~.~.~.~.~.~.~.~.~.~.~.~.~.~.~.~.~.",
"~.~.~.~.~.~.~.~.~.~.~.~.~.~.~.  * d d   ~.~.~.~.~.~.~.~.~.~.~.~.",
"~.~.~.~.~.~.~.~.~.~.~.  * d ..s.S.S.S.g   ~.~.~.~.~.~.~.~.~.~.~.",
"~.~.~.~.~.~.~.~.~.~.~.g Y.G.G.S.G.S.S.S.l   ~.~.~.~.~.~.~.~.~.~.",
"~.~.~.~.~.~.~.~.~.~.~.x Z.I.G.G.S.S.G.S.S.O.  ~.~.~.~.~.~.~.~.~.",
"~.~.~.~.~.~.~.~.~.~.~.x n.Z.Y.G.G.G.S.S.S.S.O.  ~.~.~.~.~.~.~.~.",
"~.~.~.~.~.~.~.~.~.~.~.x n.n.Z.Y.G.G.G.S.G.S.S.O.  ~.~.~.~.~.~.~.",
"~.~.~.~.~.~.~.~.~.~.~.x n.n.n.S.Y.G.G.G.G.S.S.S.O.  ~.~.~.~.~.~.",
"~.~.~.~.~.~.~.~.~.~.  - 5 k z.N.S.Y.G.G.S.G.S.S.G.z ~.~.~.~.~.~.",
"~.~.~.~.~.~.~.~.~.  y ! S r % c.B.G.I.G.G.S.I.Y.B.j ~.~.~.~.~.~.",
"~.~.~.~.~.~.~.~.  a y.p.w.` N 2 & 2 I.Y.W.I.Z.g.:.g ~.~.~.~.~.~.",
"~.~.~.~.~.~.~.~.> ~ u q.r.| R n D : G.I.V.8.:.O.:.g ~.~.~.~.~.~.",
"~.~.~.~.~.~.~.~.@     =  .^ Y G m j K.G.1.<.7.1.$.f ~.~.~.~.~.~.",
"~.~.~.~.~.~.~.~.~.  i / ^ E K G 9 O.I.G.h.<.$.@.:.f ~.~.~.~.~.~.",
"~.~.~.~.~.~.X o ~.~.@ t Y L G G $ N.Y.G.g.8.h.s.4.g ~.~.~.~.~.~.",
"~.~.~.~.~.~.q I 0   ~.: $ b G V 4 K.Y.G.b.z.g.8.4.g ~.~.~.~.~.~.",
"~.~.~.~.~.  A | W Z ,   c g , 9 c I.Y.G.b.S.n.h.4.g ~.~.~.~.~.~.",
"~.~.~.~.~.X } r.' Y G M   @.1.c B.I.Y.I.v.S.n.h.4.g ~.~.~.~.~.~.",
"~.~.~.~.~.< a.t.[ Y w o     @.I.Y.U.W.G.v.S.i.u.4.g ~.~.~.~.~.~.",
"~.~.~.~.~.p { ( ^ L M   $ 8   $.Y.Y.W.G.b.x.Q =.4.g ~.~.~.~.~.~.",
"~.~.~.~.  7 # e U G F G G , ~.  $.W.W.I.b.C.-.6.1.g ~.~.~.~.~.~.",
"~.~.~.~.~.~.~.o B G G D 8   ~.~.  %.!.G.8.z.s.s.:.1 ~.~.~.~.~.~.",
"~.~.~.~.~.~.~.~.  , , o ~.~.~.~.~.  %.I.W.8.X.6   ~.~.~.~.~.~.~.",
"~.~.~.~.~.~.~.~.~.~.~.~.~.~.~.~.~.~.        ~.~.~.~.~.~.~.~.~.~.",
"~.~.~.~.~.~.~.~.~.~.~.~.~.~.~.~.~.~.~.~.~.~.~.~.~.~.~.~.~.~.~.~.",
"~.~.~.~.~.~.~.~.~.~.~.~.~.~.~.~.~.~.~.~.~.~.~.~.~.~.~.~.~.~.~.~.",
"~.~.~.~.~.~.~.~.~.~.~.~.~.~.~.~.~.~.~.~.~.~.~.~.~.~.~.~.~.~.~.~."
};
