/* XPM */
static char *themes_32x32[] = {
/* columns rows colors chars-per-pixel */
"32 32 234 2 ",
"   c black",
".  c gray2",
"X  c #0A0000",
"o  c #0F0B00",
"O  c #0F0C00",
"+  c #090909",
"@  c gray5",
"#  c #0E0E0E",
"$  c #160101",
"%  c #100603",
"&  c #110D00",
"*  c #1E1700",
"=  c #14130F",
"-  c #1A160F",
";  c #101010",
":  c #131313",
">  c #151515",
",  c #161616",
"<  c #1B1B1B",
"1  c #290000",
"2  c #2B0201",
"3  c #241D0A",
"4  c #2C2200",
"5  c #2C2201",
"6  c #2F2500",
"7  c #2C2908",
"8  c #3C2A04",
"9  c #3D3000",
"0  c #202020",
"q  c #222222",
"w  c #272727",
"e  c #3D3228",
"r  c #343434",
"t  c gray21",
"y  c #3C3C3C",
"u  c #5F1F11",
"i  c #61120A",
"p  c #77140C",
"a  c #493700",
"s  c #4B3905",
"d  c #723B05",
"f  c #494200",
"g  c #584300",
"h  c #5C4800",
"j  c #6D4C08",
"k  c #6B5206",
"l  c #795F01",
"z  c #7F6600",
"x  c #766B03",
"c  c #5C572F",
"v  c #4D4733",
"b  c #575039",
"n  c #6D4C2B",
"m  c #7E5A20",
"M  c #7A6934",
"N  c #464646",
"B  c #4B4B4B",
"V  c #4F4D49",
"C  c #505050",
"Z  c gray34",
"A  c gray36",
"S  c DimGray",
"D  c #7D7B64",
"F  c #717171",
"G  c #727272",
"H  c #767676",
"J  c gray48",
"K  c #7B7B7B",
"L  c gray50",
"P  c #8A0301",
"I  c #900B06",
"U  c #A70000",
"Y  c #AD0804",
"T  c #BD0000",
"R  c #B00C06",
"E  c #B4120A",
"W  c #922906",
"Q  c #BB2A14",
"!  c #D80000",
"~  c #D31E11",
"^  c #C02213",
"/  c #DF2F1B",
"(  c #CC331D",
")  c #F72B03",
"_  c #FD3B0C",
"`  c #EA2E1A",
"'  c #FA361F",
"]  c #894708",
"[  c #8C5F0B",
"{  c #896C01",
"}  c #88660A",
"|  c #866D0A",
" . c #9E6E0C",
".. c #987701",
"X. c #9F7F00",
"o. c #9E7E01",
"O. c #C6471F",
"+. c #C1691C",
"@. c #FD6400",
"#. c #DB4729",
"$. c #E44E27",
"%. c #FF4A2B",
"&. c #F06439",
"*. c #F7663A",
"=. c #9E3B52",
"-. c #952872",
";. c #2B962B",
":. c #328E36",
">. c #2E9230",
",. c #349139",
"<. c #36A73C",
"1. c #49A02B",
"2. c #5FAC23",
"3. c #64B22A",
"4. c #3A9A41",
"5. c #589F55",
"6. c #45A753",
"7. c #44B051",
"8. c #48BB56",
"9. c #4CB05C",
"0. c #7B9B7A",
"q. c #52B865",
"w. c #AC8D09",
"e. c #B28901",
"r. c #B5890D",
"t. c #BA9206",
"y. c #BE9404",
"u. c #8BB110",
"i. c #BFAE01",
"p. c #A9B80C",
"a. c #B2A417",
"s. c #B5A83B",
"d. c #C98E05",
"f. c #C3880F",
"g. c #DD890C",
"h. c #C49902",
"j. c #C4940E",
"k. c #D39D04",
"l. c #D29809",
"z. c #D79D08",
"x. c #FD9800",
"c. c #FE9800",
"v. c #D6A306",
"b. c #D8AE04",
"n. c #D9A908",
"m. c #CAB708",
"M. c #C4BB0D",
"N. c #C1B710",
"B. c #DEB91C",
"V. c #FBA200",
"C. c #FEA600",
"Z. c #E1B003",
"A. c #ECBC03",
"S. c #F2BC03",
"D. c #F8B801",
"F. c #F3BA0F",
"G. c #F4BB0E",
"H. c #F5BC0D",
"J. c #E0A810",
"K. c #E2AB10",
"L. c #E3AF1E",
"P. c #F2B711",
"I. c #F2B712",
"U. c #CE9D39",
"Y. c #D09E33",
"T. c #D4A82A",
"R. c #DBB222",
"E. c #C7A433",
"W. c #C5A136",
"Q. c #F7C302",
"!. c #F7C401",
"~. c #F7C405",
"^. c #F9C601",
"/. c #FAC701",
"(. c #FBC704",
"). c #F9C407",
"_. c #FBC800",
"`. c #FDCB00",
"'. c #FDCA01",
"]. c #FCCB03",
"[. c #FECC00",
"{. c #F7C00A",
"}. c #F8C308",
"|. c #FDCF0B",
" X c #F0D300",
".X c #F4D92D",
"XX c #9C9254",
"oX c #93AB43",
"OX c #BFAC4F",
"+X c #B0A373",
"@X c #BCAD78",
"#X c #C7B078",
"$X c #E3C259",
"%X c #F4E06D",
"&X c #66359A",
"*X c #3E5FA2",
"=X c #5C6D8A",
"-X c #5D6E8B",
";X c #657687",
":X c #5A5FAB",
">X c #0342D3",
",X c #0643D4",
"<X c #0E46D8",
"1X c #1046D8",
"2X c #1347DA",
"3X c #3054D4",
"4X c #2C51E5",
"5X c #3D57ED",
"6X c #475AF1",
"7X c #4B5CF3",
"8X c #808080",
"9X c #818181",
"0X c #898989",
"qX c gray55",
"wX c #8D8D8D",
"eX c gray57",
"rX c #929292",
"tX c #989898",
"yX c #9B9B9B",
"uX c #BBAE83",
"iX c gray64",
"pX c gray68",
"aX c gray69",
"sX c #B1B1B1",
"dX c #B4B4B4",
"fX c #BCBCBC",
"gX c #F9E899",
"hX c #FCEFBC",
"jX c #C1C1C1",
"kX c gray80",
"lX c #DDDDDD",
"zX c #F8EBC6",
"xX c #EFEEEC",
"cX c None",
/* pixels */
"cXcXcXcXcXcXcXcXcXcXcXcXcXcXcXcXcXcXcXcXcXcXcXcXcXcXcXcXcXcXcXcX",
"cXcXcXcXcXcXcXcXcXcXcXcXcXcXcXcXcXcXcXcXcXcXcXcXcXcXcXcXcXcXcXcX",
"cXcXcXcXcXcXcXcXcXcXcXcXcXcXcXcXcXcXcXcXcXcXcXcXcXcXcXcXcXcXcXcX",
"cXcXcXcXcXcXcXcXcXcXcXcXcXcXcXcXcXcXcXcXcXcXcXcXcXcXcXcXcXcXcXcX",
"cXcXcXcXcXcXcXcXcXcXcXcXcXcXcXcXcXcXcXcXcXcXcXcXcXcXcXcXcXcXcXcX",
"cXcXcXcXcXcX@ @ cXcXcXcXcXcXcXcXcXcXcXcXcXcXcXcXcXcXcXcXcXcXcXcX",
"cXcXcXcXcXcX< N cXcXcXcXcXcXcXcXcXcXcXcXcXcXcXcXcXcXcXcXcXcXcXcX",
"cXcXcXcXcXcX, G . cXcXcXcXcXcXcXcXcXcXcXcXcXcXcXcXcXcXcXcXcXcXcX",
"cXcXcXcXcXcX: 8Xy cXcXcXcXcXcXcXcXcXcXcXcXcXcXcXcXcXcXcXcXcXcXcX",
"cXcXcXcXcXcX  K G   cXcXcXcXcXcXcXcXcXcXcXcXcXcXcXcXcXcXcXcXcXcX",
"cXcXcXcXcXcX  8XqX, cXcXcXcXcXcXcXcXcXcXcXcXcXcXcXcXcXcXcXcXcXcX",
"cXcXcXcXcXcXcXS qXB cXcXcXcXcXcXcXcXcXcXcXcXcXcXcXcXcXcXcXcXcXcX",
"cXcXcXcXcXcXcXN tXK       cXcXcXcXcXcXcXcXcXcXcXcXcXcXcXcXcXcXcX",
"cXcXcXcXcXcX  q pXtX3 v.l cXcXcXcXcXcX        cXcXcXcXcXcXcXcXcX",
"cXcXcXcXcX  g - fXqXr y.{   cX    s } r.j.K.r.k & cXcXcXcXcXcXcX",
"cXcXcXcXcXg l.8 pXqXA | b.z o.t.G.I.I.T.=X*X=XE.n.6 cXcXcXcXcXcX",
"cXcXcXcXo k.f.j G iX8X7 m. X(.).G.I.L.3X1X,X>X,XXXA.& cXcXcXcXcX",
"cXcXcXcXg z.f. .t jXtX+   x .X).G.I.W.6X7X1X<X5X4XB.o.  cXcXcXcX",
"cXcXcXcXa J.f.f.- kXqXr g w.|.(.{.I.I.=.-.-.&X:X;X[.`.  cXcXcXcX",
"cXcXcXcXO $XY.f.8 sXrXZ .._.[.`.M.M.g.%.#.U T ! ) C._.9 cXcXcXcX",
"cXcXcXcXcXv zXU.j G pXH b +XoX8.7.;.;.$.&.^ Y ( *.@.^.* cXcXcXcX",
"cXcXcXcXcX  V xX#Xw lXrXq yX0.8.q.,.:.m ' ` ~ ` _ D.h.  cXcXcXcX",
"cXcXcXcXcXcXcX: D = dXjX0 tXdX5.<.4.6.9.1.x.x.V.Q.Z.4 cXcXcXcXcX",
"cXcXcXcXcXcXcXcXcX  C rXe c OXR.m.u.2.3.p.~.~.A.e.4 cXcXcXcXcXcX",
"cXcXcXcXcXcXcXcXcX  [ n d 2 f a.s.%XgXhX@XuXM 4   cXcXcXcXcXcXcX",
"cXcXcXcXcXcXcXcXcX  d.] W Q p X             cXcXcXcXcXcXcXcXcXcX",
"cXcXcXcXcXcXcXcXcX  +.O.E R ^ 2 cXcXcXcXcXcXcXcXcXcXcXcXcXcXcXcX",
"cXcXcXcXcXcXcXcXcXcX% u i I P   cXcXcXcXcXcXcXcXcXcXcXcXcXcXcXcX",
"cXcXcXcXcXcXcXcXcXcXcXcX  $   cXcXcXcXcXcXcXcXcXcXcXcXcXcXcXcXcX",
"cXcXcXcXcXcXcXcXcXcXcXcXcXcXcXcXcXcXcXcXcXcXcXcXcXcXcXcXcXcXcXcX",
"cXcXcXcXcXcXcXcXcXcXcXcXcXcXcXcXcXcXcXcXcXcXcXcXcXcXcXcXcXcXcXcX",
"cXcXcXcXcXcXcXcXcXcXcXcXcXcXcXcXcXcXcXcXcXcXcXcXcXcXcXcXcXcXcXcX"
};
