/* XPM */
static char * workspacebuttonactive_xpm[] = {
"1 30 28 1",
" 	c #4C5799",
".	c #4C579A",
"+	c #4D589B",
"@	c #4E599C",
"#	c #4F5A9E",
"$	c #505B9F",
"%	c #515CA0",
"&	c #515CA1",
"*	c #525DA2",
"=	c #525EA3",
"-	c #525EA5",
";	c #535FA6",
">	c #5460A7",
",	c #5460A8",
"'	c #5460A9",
")	c #5460AA",
"!	c #5561AB",
"~	c #5662AC",
"{	c #5663AD",
"]	c #5764AE",
"^	c #5864B0",
"/	c #5965B1",
"(	c #5966B2",
"_	c #5A67B4",
":	c #5A67B5",
"<	c #5B68B7",
"[	c #5C69B8",
"}	c #5D6AB9",
" ",
".",
"+",
"@",
"#",
"#",
"$",
"%",
"&",
"*",
"=",
"-",
";",
">",
",",
"'",
")",
"!",
"~",
"{",
"]",
"^",
"/",
"(",
"_",
"_",
":",
"<",
"[",
"}"};
