/* XPM */
static char * workspacebuttonbg_xpm[] = {
"1 30 29 1",
" 	c #E0E1E1",
".	c #DFE0E0",
"+	c #DEDEDE",
"@	c #DDDDDD",
"#	c #DBDBDB",
"$	c #DADADA",
"%	c #D8D8D8",
"&	c #D7D7D7",
"*	c #D6D6D6",
"=	c #D5D5D5",
"-	c #D4D4D4",
";	c #D3D3D3",
">	c #D1D2D1",
",	c #D0D1D0",
"'	c #D0D0CF",
")	c #CFCFCF",
"!	c #CECECE",
"~	c #CCCCCC",
"{	c #CBCBCB",
"]	c #CACACA",
"^	c #C9C9C9",
"/	c #C8C8C8",
"(	c #C7C7C7",
"_	c #C5C5C5",
":	c #C4C4C4",
"<	c #C2C2C2",
"[	c #C1C1C1",
"}	c #BFBFBF",
"|	c #BEBEBE",
" ",
".",
"+",
"@",
"#",
"$",
"%",
"&",
"*",
"=",
"-",
";",
">",
",",
"'",
"'",
")",
"!",
"~",
"{",
"]",
"^",
"/",
"(",
"_",
":",
"<",
"[",
"}",
"|"};
