/* XPM */
static char * workspacebuttonactive_xpm[] = {
"1 30 29 1",
" 	c #96404D",
".	c #97404D",
"+	c #98404D",
"@	c #99414D",
"#	c #9A424E",
"$	c #9C424F",
"%	c #9D4350",
"&	c #9F4451",
"*	c #A04552",
"=	c #A24653",
"-	c #A44654",
";	c #A54654",
">	c #A64755",
",	c #A74856",
"'	c #A94856",
")	c #AB4856",
"!	c #AD4857",
"~	c #AF4858",
"{	c #B14858",
"]	c #B34856",
"^	c #B64756",
"/	c #B84657",
"(	c #B94758",
"_	c #BA4858",
":	c #BC4858",
"<	c #BF4859",
"[	c #C1495B",
"}	c #BD4758",
"|	c #B84253",
" ",
".",
"+",
"@",
"#",
"$",
"%",
"&",
"&",
"*",
"=",
"-",
";",
">",
",",
"'",
")",
"!",
"~",
"{",
"]",
"^",
"/",
"(",
"_",
":",
"<",
"[",
"}",
"|"};
