/* XPM */
static char *reboot_16x16[] = {
/* columns rows colors chars-per-pixel */
"16 16 81 1 ",
"  c black",
". c #05090C",
"X c #06090C",
"o c #06090D",
"O c #060A0D",
"+ c #040910",
"@ c #090F16",
"# c #15181C",
"$ c #181A1D",
"% c #191B1D",
"& c #0E1826",
"* c #0C1729",
"= c #23272B",
"- c #172946",
"; c #1F3451",
": c #27384A",
"> c #2B3C4E",
", c #1D3763",
"< c #314862",
"1 c #334C66",
"2 c #24457C",
"3 c #335275",
"4 c #375679",
"5 c #4A4B4D",
"6 c #49596B",
"7 c #505F6F",
"8 c #77797C",
"9 c #365E98",
"0 c #375F99",
"q c #3A629B",
"w c #3F649B",
"e c #3A639D",
"r c #516B85",
"t c #536E8D",
"y c #466F9C",
"u c #737C86",
"i c #426DA7",
"p c #537CA5",
"a c #547DA6",
"s c #4A78B2",
"d c #597FB0",
"f c #5680AD",
"g c #6C87A3",
"h c #6F96C3",
"j c #759DCB",
"k c #719CCC",
"l c #77A1CE",
"z c #7AA2CE",
"x c #75A3D1",
"c c #8698AB",
"v c #A2AAB4",
"b c #A9B0B7",
"n c #95B0CE",
"m c #80A6D0",
"M c #85ADD6",
"N c #97B5D6",
"B c #91B5DA",
"V c #95B8DB",
"C c #9BBADA",
"Z c #9ABBDD",
"A c #9DBEDE",
"S c #A2B5CA",
"D c #B3C6DA",
"F c #A5C3E1",
"G c #A7C4E1",
"H c #A8C5E2",
"J c #A9C5E2",
"K c #AEC9E3",
"L c #B4CDE6",
"P c #B5CDE6",
"I c #B8CFE7",
"U c #B9D0E7",
"Y c #BAD1E8",
"T c #BFD5E9",
"R c #C7DAEC",
"E c #CBDAEC",
"W c #CBDCED",
"Q c #CCDDED",
"! c #D7E3F0",
"~ c #DBE6F2",
"^ c None",
/* pixels */
"^^^^^^^^^^^^^^^^",
"^^^^^^^^^X^^^^^^",
"^^^^^^^^ t: ^^^^",
"^^^^^^   cm< ^^^",
"^^^^ 5b!EDKz4X^^",
"^^^ uQWRTLJZkyX^",
"^^^#LUYINCABhe;^",
"^^^7FJjsieBd2* ^",
"^^^gVl3@ 0w,+^^^",
"^^^rMf ^ 0- ^^^^",
"^^^>xn ^ & ^^^^^",
"^^^ aG6 ^^^^^^^^",
"^^^^Xa~8 ^^^^^^^",
"^^^^^ 1Sv$^^^^^^",
"^^^^^^^ $= ^^^^^",
"^^^^^^^^^^^^^^^^"
};
