/* XPM */
static char *themes_16x16[] = {
/* columns rows colors chars-per-pixel */
"16 16 95 2 ",
"   c black",
".  c #0E0B00",
"X  c #0C0C0C",
"o  c #0E0E0E",
"O  c #190B00",
"+  c #1D1600",
"@  c #1E1602",
"#  c gray8",
"$  c gray11",
"%  c gray12",
"&  c #291E07",
"*  c #2B1009",
"=  c #221F15",
"-  c #2C2100",
";  c #2C2300",
":  c #2D2202",
">  c #3C2D04",
",  c #3E3200",
"<  c #3F3F3D",
"1  c #3E3E3E",
"2  c #5E0F08",
"3  c #600302",
"4  c #553B06",
"5  c #5F4C00",
"6  c #585000",
"7  c #695201",
"8  c #7F5F02",
"9  c #774024",
"0  c #73592C",
"q  c #494949",
"w  c #4C4C4C",
"e  c #4E4E4E",
"r  c #5D5642",
"t  c gray36",
"y  c #5D5D5D",
"u  c #606060",
"i  c #6C6C6C",
"p  c #747474",
"a  c gray46",
"s  c #7B7E71",
"d  c #7A7C72",
"f  c #AD180A",
"g  c #B72414",
"h  c #D50C12",
"j  c #C92F1B",
"k  c #CA301B",
"l  c #FE3E15",
"z  c #ED2E25",
"x  c #997E00",
"c  c #9E7E01",
"v  c #876B10",
"b  c #8C7211",
"n  c #C86D15",
"m  c #E26004",
"M  c #FC7000",
"N  c #F14B29",
"B  c #CF7228",
"V  c #B11947",
"C  c #2D962E",
"Z  c #3B9E43",
"A  c #3BA840",
"S  c #589841",
"D  c #5E9D5C",
"F  c #7E967D",
"G  c #53BE67",
"H  c #A98601",
"J  c #BD9700",
"K  c #A69226",
"L  c #C79A0A",
"P  c #D79D08",
"I  c #CD9E10",
"U  c #D1BD0B",
"Y  c #E5A802",
"T  c #F6BE0B",
"R  c #F2B712",
"E  c #D4A82A",
"W  c #E2B12E",
"Q  c #FDCD04",
"!  c #F4D318",
"~  c #BBA760",
"^  c #B5C774",
"/  c #C2D365",
"(  c #3E5FA2",
")  c #667787",
"_  c #0F46D8",
"`  c #224DE0",
"'  c #455AF0",
"]  c #A79D87",
"[  c gray63",
"{  c #A7A7A7",
"}  c #AFAFAF",
"|  c #B2B2B2",
" . c #B4B4B4",
".. c #B9B9B9",
"X. c None",
/* pixels */
"X.X.X.X.X.X.X.X.X.X.X.X.X.X.X.X.",
"X.X.  X X.X.X.X.X.X.X.X.X.X.X.X.",
"X.X.  e   X.X.X.X.X.X.X.X.X.X.X.",
"X.X.  p # X.X.X.X.X.X.X.X.X.X.X.",
"X.X.  u e X.X.X.X.X.X.X.X.X.X.X.",
"X.X.X.i p     X.X.X.X.X.X.X.X.X.",
"X.X.  q { = 7     @ > > :   X.X.",
"X.  8 % | 1 x c L R s ( s b   X.",
"X.: P : } t 6 ! T E ' _ ` ) 5 X.",
"X.@ W 4 [ p , Q U I z h V B J   ",
"X.  r ] t  .$ D G C N k k l H   ",
"X.X.  < X ..$ F A Z S m M Y : X.",
"X.X.X.X.. 0 9 O K / ^ ~ v @ X.X.",
"X.X.X.X.@ n f g         X.X.X.X.",
"X.X.X.X.  * 2 3   X.X.X.X.X.X.X.",
"X.X.X.X.X.X.    X.X.X.X.X.X.X.X."
};
