/* XPM */
static char *xterm_16x16[] = {
/* columns rows colors chars-per-pixel */
"16 16 110 2 ",
"   c black",
".  c #0B0B0B",
"X  c gray5",
"o  c #1B1B1B",
"O  c gray15",
"+  c gray16",
"@  c #2A2A2A",
"#  c gray17",
"$  c gray20",
"%  c #353535",
"&  c #373737",
"*  c #393939",
"=  c #012A5E",
"-  c #012B5F",
";  c #012B60",
":  c #012B61",
">  c #012C61",
",  c #012C62",
"<  c #042E65",
"1  c #0F3570",
"2  c #0E3571",
"3  c #0F3672",
"4  c #103570",
"5  c #113672",
"6  c #123773",
"7  c #123774",
"8  c #123775",
"9  c #143876",
"0  c #153978",
"q  c #153A79",
"w  c #163A7A",
"e  c #163B7A",
"r  c #173C7C",
"t  c #183C7D",
"y  c #183D7E",
"u  c #25446E",
"i  c #515151",
"p  c #535353",
"a  c #40556F",
"s  c #405570",
"d  c #405670",
"f  c #505F72",
"g  c #626262",
"h  c #646464",
"j  c #606A77",
"k  c #646D7C",
"l  c #747474",
"z  c #1A3E80",
"x  c #224681",
"c  c #406087",
"v  c #496590",
"b  c #4A6691",
"n  c #4A6692",
"m  c #4B6793",
"M  c #4C6895",
"N  c #606F82",
"B  c #606F83",
"V  c #657388",
"C  c #708298",
"Z  c #808080",
"A  c #898989",
"S  c #8B8B8B",
"D  c gray55",
"F  c #808A98",
"G  c #979797",
"H  c #989898",
"J  c #9A9A9A",
"K  c gray62",
"L  c #889AB8",
"P  c #A0A0A0",
"I  c gray63",
"U  c #A2A2A2",
"Y  c #A4A4A4",
"T  c #A5A5A5",
"R  c #AAAAAA",
"E  c gray71",
"W  c #B6B6B6",
"Q  c gray74",
"!  c gray",
"~  c gray75",
"^  c #9AAAC7",
"/  c #A3B1C6",
"(  c #BFCAD7",
")  c #C0C0C0",
"_  c #C1C1C1",
"`  c gray76",
"'  c gray77",
"]  c #C5C5C5",
"[  c gray78",
"{  c #C8C8C8",
"}  c gray81",
"|  c #C3CCDB",
" . c gray82",
".. c #D5D5D5",
"X. c gray84",
"o. c #CFD7E0",
"O. c #CFD7E1",
"+. c #DFE4EB",
"@. c #E6E6E6",
"#. c #EAEAEA",
"$. c gray92",
"%. c #EEEEEE",
"&. c gray94",
"*. c #F3F3F3",
"=. c #F6F6F6",
"-. c gray97",
";. c #F8F8F8",
":. c #FBFBFB",
">. c white",
",. c None",
/* pixels */
",.,.,.,.,.,.,.,.,.,.,.,.,.,.,.,.",
",.,.,.,.,.,.,.,.,.,.,.  o X   ,.",
",.,.,.,.,.,.    o i D ! } ) . ,.",
",.,.    # h K ! } ] E Y H )   ,.",
",.  Y X.X.] E Y H S Z k V %.  ,.",
",.*  .R G D Z j u u w 6 n =.  ,.",
",.% { I f C = : 4 y w 7 n =.  ,.",
",.% ] I N o.+.: x u w 6 M =.  ,.",
",.$ ) I N o.c +.^ z w 6 n =.  ,.",
",.$ ) I u , , 1 r r 8 1 v =.  ,.",
",.$ ) I f - , 1 7 7 6 n / =.  ,.",
",.$ ) U d < , n L | >.:.=.$.  ,.",
",.$ ) U F | >.:.%.$.X.H g #   ,.",
",.O ) ) @.@.) A i #     ,.,.,.,.",
",.  l Z i o     ,.,.,.,.,.,.,.,.",
",.,.    ,.,.,.,.,.,.,.,.,.,.,.,."
};
